<?xml version="1.0" encoding="utf-8"?>
<!-- Generator: Adobe Illustrator 16.0.0, SVG Export Plug-In . SVG Version: 6.00 Build 0)  -->
<!DOCTYPE svg PUBLIC "-//W3C//DTD SVG 1.1//EN" "http://www.w3.org/Graphics/SVG/1.1/DTD/svg11.dtd">
<svg version="1.1" id="Слой_1" xmlns="http://www.w3.org/2000/svg" xmlns:xlink="http://www.w3.org/1999/xlink" x="0px" y="0px"
	 width="85.084px" height="137.86px" viewBox="0 0 85.084 137.86" enable-background="new 0 0 85.084 137.86" xml:space="preserve">
<g>
	<path fill="none" stroke="#098ECE" stroke-width="4" stroke-miterlimit="10" d="M83.084,122.925
		c0,7.146-5.791,12.936-12.936,12.936H14.936C7.794,135.86,2,130.071,2,122.925V14.936C2,7.792,7.794,2,14.936,2h55.213
		c7.145,0,12.936,5.792,12.936,12.936V122.925z"/>
	<path fill="none" stroke="#098ECE" stroke-width="4" stroke-linecap="round" stroke-linejoin="round" stroke-miterlimit="10" d="
		M22.986,70.058l19.557,19.678L72.966,49.14v66.905c0,0.846-0.687,1.532-1.533,1.532H13.652c-0.847,0-1.532-0.687-1.532-1.532
		V21.817c0-0.846,0.686-1.532,1.532-1.532h57.781c0.847,0,1.533,0.687,1.533,1.532v16.121"/>
	
		<circle fill="none" stroke="#098ECE" stroke-width="4" stroke-linecap="round" stroke-linejoin="round" stroke-miterlimit="10" cx="42.542" cy="126.291" r="3.355"/>
</g>
</svg>
