<?xml version="1.0" encoding="utf-8"?>
<!-- Generator: Adobe Illustrator 16.0.0, SVG Export Plug-In . SVG Version: 6.00 Build 0)  -->
<!DOCTYPE svg PUBLIC "-//W3C//DTD SVG 1.1//EN" "http://www.w3.org/Graphics/SVG/1.1/DTD/svg11.dtd">
<svg version="1.1" id="Слой_1" xmlns="http://www.w3.org/2000/svg" xmlns:xlink="http://www.w3.org/1999/xlink" x="0px" y="0px"
	 width="233.596px" height="205.21px" viewBox="0 0 233.596 205.21" enable-background="new 0 0 233.596 205.21"
	 xml:space="preserve">
<g opacity="0.7">
	<line fill="none" stroke="#000000" stroke-width="2" stroke-miterlimit="10" x1="92.808" y1="53.523" x2="222.157" y2="53.523"/>
	<path fill="none" stroke="#000000" stroke-width="2" stroke-miterlimit="10" d="M141.668,53.523h-25.25v46.458
		c0,6.499,5.27,11.767,11.769,11.767h1.715c6.498,0,11.767-5.269,11.767-11.767V82.349h1.607c7.94,0,14.376-6.435,14.376-14.376
		v-14.45H141.668z"/>
	<polyline fill="none" stroke="#000000" stroke-miterlimit="10" points="116.418,78.324 87.957,78.324 87.957,163.638 
		179.177,163.638 179.177,78.324 152.51,78.324 	"/>
	<rect x="193.128" y="78.324" fill="none" stroke="#000000" stroke-miterlimit="10" width="33.864" height="85.313"/>
	<path fill="none" stroke="#000000" stroke-width="3" stroke-miterlimit="10" d="M227.865,182.112h-0.873V61.318h0.873
		c2.335,0,4.229-1.893,4.229-4.229s-1.895-4.229-4.229-4.229h-0.873h-4.835v-7.354H92.808v7.354H87.97h-0.871
		c-2.335,0-4.229,1.893-4.229,4.229s1.894,4.229,4.229,4.229h0.871v120.794h-0.871c-2.335,0-4.229,1.894-4.229,4.229
		c0,2.334,1.894,4.229,4.229,4.229h0.871h139.022h0.873c2.335,0,4.229-1.893,4.229-4.229S230.201,182.112,227.865,182.112z"/>
</g>
<g opacity="0.7">
	<path fill="none" stroke="#000000" stroke-width="1.9" stroke-miterlimit="10" d="M15.66,39.685l0.247-1.117
		c1.771-8.01,1.568-16.332-0.592-24.245L12.167,2.777c-0.294-1.079-1.271-1.827-2.39-1.827S7.681,1.698,7.386,2.777l-3.15,11.545
		c-2.159,7.915-2.361,16.236-0.591,24.246l0.247,1.117L0.95,83.813h0.001v19.599l4.429,80.178c0.087,2.365,2.031,4.236,4.397,4.236
		s4.309-1.871,4.396-4.236l4.43-80.178V83.813l0,0L15.66,39.685z"/>
	<line fill="none" stroke="#000000" stroke-width="1.9" stroke-miterlimit="10" x1="3.892" y1="39.685" x2="15.66" y2="39.685"/>
	<line fill="none" stroke="#000000" stroke-width="1.9" stroke-miterlimit="10" x1="2.422" y1="82.635" x2="17.131" y2="82.635"/>
</g>
<g opacity="0.7">
	<path fill="none" stroke="#000000" stroke-width="1.9" stroke-miterlimit="10" d="M60.085,0.95H36.895l2.941,33.682l-0.324,45.633
		v20.267l3.616,99.346c0.106,2.447,2.479,4.381,5.373,4.381c2.894,0,5.268-1.934,5.372-4.381l3.618-99.346V80.265l0.405-45.633
		L60.085,0.95z"/>
	<line fill="none" stroke="#000000" stroke-width="1.9" stroke-miterlimit="10" x1="39.838" y1="34.632" x2="57.164" y2="34.632"/>
	<line fill="none" stroke="#000000" stroke-width="1.9" stroke-miterlimit="10" x1="39.838" y1="38.691" x2="57.164" y2="38.691"/>
	<line fill="none" stroke="#000000" stroke-width="1.9" stroke-miterlimit="10" x1="39.184" y1="79.509" x2="57.492" y2="79.509"/>
	<line fill="none" stroke="#000000" stroke-width="1.9" stroke-miterlimit="10" x1="45.445" y1="0.95" x2="45.445" y2="14.336"/>
	<line fill="none" stroke="#000000" stroke-width="1.9" stroke-miterlimit="10" x1="49.306" y1="0.95" x2="49.306" y2="27.723"/>
	<line fill="none" stroke="#000000" stroke-width="1.9" stroke-miterlimit="10" x1="52.922" y1="0.95" x2="52.922" y2="27.723"/>
</g>
<line opacity="0.7" fill="none" stroke="#000000" stroke-miterlimit="10" x1="87.97" y1="182.112" x2="110.231" y2="182.112"/>
<line opacity="0.7" fill="none" stroke="#000000" stroke-miterlimit="10" x1="226.993" y1="182.112" x2="216.139" y2="182.112"/>
</svg>
