<?xml version="1.0" encoding="utf-8"?>
<!-- Generator: Adobe Illustrator 16.0.0, SVG Export Plug-In . SVG Version: 6.00 Build 0)  -->
<!DOCTYPE svg PUBLIC "-//W3C//DTD SVG 1.1//EN" "http://www.w3.org/Graphics/SVG/1.1/DTD/svg11.dtd">
<svg version="1.1" id="Слой_1" xmlns="http://www.w3.org/2000/svg" xmlns:xlink="http://www.w3.org/1999/xlink" x="0px" y="0px"
	 width="159.605px" height="279.226px" viewBox="0 0 159.605 279.226" enable-background="new 0 0 159.605 279.226"
	 xml:space="preserve">
<g>
	<rect x="1" y="1" fill="#FCFCFC" stroke="#494949" stroke-width="2" stroke-miterlimit="10" width="157.605" height="277.226"/>
	<rect x="46.047" y="254.269" fill="none" stroke="#494949" stroke-miterlimit="10" width="67.512" height="23.957"/>
	<rect x="1" y="254.269" fill="none" stroke="#494949" stroke-miterlimit="10" width="45.047" height="23.957"/>
	<rect x="113.559" y="254.269" fill="none" stroke="#494949" stroke-miterlimit="10" width="45.046" height="23.957"/>
	<rect x="1" y="1" fill="#494949" width="157.605" height="10.268"/>
	<circle fill="#919191" cx="23.523" cy="266.246" r="4.085"/>
	<circle fill="#919191" cx="136.082" cy="266.246" r="4.085"/>
	<rect x="74.026" y="260.469" fill="#919191" width="11.553" height="11.554"/>
	<line fill="none" stroke="#494949" stroke-width="2" stroke-miterlimit="10" x1="13.747" y1="113.784" x2="145.859" y2="113.784"/>
	<line fill="none" stroke="#494949" stroke-width="2" stroke-miterlimit="10" x1="13.747" y1="149.784" x2="145.859" y2="149.784"/>
	<line fill="none" stroke="#494949" stroke-width="2" stroke-miterlimit="10" x1="13.747" y1="185.784" x2="145.859" y2="185.784"/>
	
		<rect x="84.05" y="202.491" fill="#A6E8FF" stroke="#494949" stroke-width="2" stroke-linecap="round" stroke-linejoin="round" stroke-miterlimit="10" width="54.668" height="34.667"/>
	<line fill="none" stroke="#494949" stroke-miterlimit="10" x1="84.05" y1="237.158" x2="138.718" y2="202.491"/>
	<line fill="none" stroke="#494949" stroke-miterlimit="10" x1="84.05" y1="202.491" x2="138.718" y2="237.158"/>
	<path fill="#D9DADB" stroke="#494949" stroke-miterlimit="10" d="M141.691,74.041c0,5.799-4.701,10.5-10.5,10.5H28.415
		c-5.799,0-10.5-4.701-10.5-10.5l0,0c0-5.799,4.701-10.5,10.5-10.5h102.776C136.99,63.541,141.691,68.242,141.691,74.041
		L141.691,74.041z"/>
	
		<line fill="none" stroke="#494949" stroke-linecap="round" stroke-linejoin="round" stroke-miterlimit="10" x1="35.604" y1="40.768" x2="124.003" y2="40.768"/>
	
		<line fill="none" stroke="#494949" stroke-linecap="round" stroke-linejoin="round" stroke-miterlimit="10" x1="35.604" y1="50.768" x2="124.003" y2="50.768"/>
	
		<line fill="none" stroke="#494949" stroke-linecap="round" stroke-linejoin="round" stroke-miterlimit="10" x1="13.604" y1="127.893" x2="57.36" y2="127.893"/>
	
		<line fill="none" stroke="#494949" stroke-linecap="round" stroke-linejoin="round" stroke-miterlimit="10" x1="13.604" y1="137.893" x2="67.503" y2="137.893"/>
	
		<line fill="none" stroke="#494949" stroke-linecap="round" stroke-linejoin="round" stroke-miterlimit="10" x1="13.604" y1="212.491" x2="57.36" y2="212.491"/>
	
		<line fill="none" stroke="#494949" stroke-linecap="round" stroke-linejoin="round" stroke-miterlimit="10" x1="13.604" y1="222.491" x2="67.503" y2="222.491"/>
	
		<line fill="none" stroke="#494949" stroke-linecap="round" stroke-linejoin="round" stroke-miterlimit="10" x1="13.604" y1="232.491" x2="67.503" y2="232.491"/>
	
		<line fill="none" stroke="#494949" stroke-linecap="round" stroke-linejoin="round" stroke-miterlimit="10" x1="35.604" y1="68.374" x2="35.604" y2="79.707"/>
	
		<rect x="91.86" y="126.173" fill="#A6E8FF" stroke="#494949" stroke-linecap="round" stroke-linejoin="round" stroke-miterlimit="10" width="13.439" height="13.439"/>
	
		<rect x="125.278" y="126.173" fill="#A6E8FF" stroke="#494949" stroke-linecap="round" stroke-linejoin="round" stroke-miterlimit="10" width="13.439" height="13.439"/>
	<text transform="matrix(1 0 0 1 23.5234 175.3877)" font-family="'MyriadPro-Regular'" font-size="12">**********************</text>
</g>
</svg>
