<?xml version="1.0" encoding="utf-8"?>
<!-- Generator: Adobe Illustrator 16.0.0, SVG Export Plug-In . SVG Version: 6.00 Build 0)  -->
<!DOCTYPE svg PUBLIC "-//W3C//DTD SVG 1.1//EN" "http://www.w3.org/Graphics/SVG/1.1/DTD/svg11.dtd">
<svg version="1.1" id="Слой_1" xmlns="http://www.w3.org/2000/svg" xmlns:xlink="http://www.w3.org/1999/xlink" x="0px" y="0px"
	 width="159.606px" height="279.226px" viewBox="104.3 46.172 159.606 279.226"
	 enable-background="new 104.3 46.172 159.606 279.226" xml:space="preserve">
<rect x="105.3" y="47.172" fill="#FFFFFF" stroke="#494949" stroke-width="2" stroke-miterlimit="10" width="157.606" height="277.226"/>
<rect x="150.348" y="300.438" fill="none" stroke="#494949" stroke-miterlimit="10" width="67.512" height="23.958"/>
<rect x="105.3" y="300.438" fill="none" stroke="#494949" stroke-miterlimit="10" width="45.048" height="23.958"/>
<rect x="217.857" y="300.438" fill="none" stroke="#494949" stroke-miterlimit="10" width="45.047" height="23.958"/>
<path fill="#D9DADB" stroke="#494949" stroke-miterlimit="10" d="M236.745,211.06c0,5.799-4.701,10.5-10.5,10.5h-82
	c-5.8,0-10.5-4.701-10.5-10.5l0,0c0-5.799,4.7-10.5,10.5-10.5h82C232.044,200.56,236.745,205.261,236.745,211.06L236.745,211.06z"/>
<polygon fill="#494949" points="230.587,208.163 224.794,213.956 219.001,208.163 "/>
<rect x="105.3" y="47.172" fill="#494949" width="157.604" height="10.268"/>
<line fill="none" stroke="#494949" stroke-linecap="round" stroke-linejoin="round" stroke-miterlimit="10" x1="142.188" y1="238.663" x2="230.587" y2="238.663"/>
<line fill="none" stroke="#494949" stroke-linecap="round" stroke-linejoin="round" stroke-miterlimit="10" x1="142.188" y1="248.663" x2="230.587" y2="248.663"/>
<circle fill="#919191" cx="127.823" cy="312.418" r="4.084"/>
<circle fill="#919191" cx="240.382" cy="312.418" r="4.084"/>
<rect x="157.911" y="105.712" fill="#A6E8FF" stroke="#494949" stroke-width="2" stroke-linecap="round" stroke-linejoin="round" stroke-miterlimit="10" width="54.668" height="54.667"/>
<line fill="none" stroke="#494949" stroke-miterlimit="10" x1="157.911" y1="160.379" x2="212.579" y2="105.712"/>
<line fill="none" stroke="#494949" stroke-miterlimit="10" x1="157.911" y1="105.712" x2="212.579" y2="160.379"/>
<rect x="178.325" y="306.641" fill="#919191" width="11.554" height="11.555"/>
</svg>
