<?xml version="1.0" encoding="utf-8"?>
<!-- Generator: Adobe Illustrator 16.0.0, SVG Export Plug-In . SVG Version: 6.00 Build 0)  -->
<!DOCTYPE svg PUBLIC "-//W3C//DTD SVG 1.1//EN" "http://www.w3.org/Graphics/SVG/1.1/DTD/svg11.dtd">
<svg version="1.1" id="Слой_1" xmlns="http://www.w3.org/2000/svg" xmlns:xlink="http://www.w3.org/1999/xlink" x="0px" y="0px"
	 width="553.747px" height="686.683px" viewBox="0 0 553.747 686.683" enable-background="new 0 0 553.747 686.683"
	 xml:space="preserve">
<rect x="308.709" y="126.031" fill="#FF1E00" width="89.624" height="31.847"/>
<path fill="none" stroke="#494949" stroke-miterlimit="10" d="M40.646,533.779c3.89,0,7.042,3.15,7.042,7.041l0,0
	c0,3.885-3.152,7.036-7.042,7.036l0,0c-3.886,0-7.037-3.151-7.037-7.036l0,0C33.609,536.93,36.76,533.779,40.646,533.779
	L40.646,533.779z"/>
<path fill="none" stroke="#494949" stroke-miterlimit="10" d="M513.399,529.38c6.323,0,11.444,5.122,11.444,11.444l0,0
	c0,6.311-5.121,11.433-11.444,11.433l0,0c-6.312,0-11.433-5.122-11.433-11.433l0,0C501.967,534.502,507.088,529.38,513.399,529.38
	L513.399,529.38z"/>
<path fill="none" stroke="#494949" stroke-miterlimit="10" d="M513.398,524.056c9.264,0,16.768,7.504,16.768,16.77l0,0
	c0,9.25-7.504,16.753-16.768,16.753l0,0c-9.249,0-16.755-7.503-16.755-16.753l0,0C496.644,531.56,504.149,524.056,513.398,524.056
	L513.398,524.056z"/>
<rect x="71.292" y="423.941" fill="#494949" width="411.164" height="233.753"/>
<path fill="none" stroke="#494949" stroke-width="2" stroke-miterlimit="10" d="M552.747,667.978
	c0,9.778-7.927,17.705-17.705,17.705H18.705C8.927,685.683,1,677.756,1,667.978V413.659c0-9.778,7.927-17.705,17.705-17.705h516.337
	c9.778,0,17.705,7.927,17.705,17.705V667.978z"/>
<rect x="99.042" y="189.601" fill="#FFD713" width="147.199" height="58.747"/>
<rect x="132.252" y="126.997" fill="#FFD713" width="122.25" height="29.085"/>
<rect x="113.295" y="59.471" fill="#FFD713" width="84.675" height="12.194"/>
<rect x="179.539" y="14.745" fill="#FFD713" width="36.862" height="5.272"/>
<rect x="221.291" y="346.813" fill="#FF9F1D" width="87.418" height="310.881"/>
<rect x="183.77" y="265.734" fill="#FF9F1D" width="124.939" height="44.823"/>
<rect x="221.291" y="197.51" fill="#FF9F1D" width="87.418" height="31.971"/>
<rect x="209.478" y="138.574" fill="#FF9F1D" width="132.978" height="12.486"/>
<rect x="189.289" y="101.005" fill="#FF9F1D" width="87.419" height="6.396"/>
<rect x="243.514" y="56.272" fill="#FF9F1D" width="33.195" height="6.396"/>
<rect x="308.709" y="298.363" fill="#FF1E00" width="67.494" height="359.331"/>
<rect x="294.513" y="184.655" fill="#FF1E00" width="81.69" height="63.692"/>
<rect x="297.618" y="71.665" fill="#FF1E00" width="53.295" height="10.948"/>
<rect x="344.819" y="44.486" fill="#FF1E00" width="48.568" height="4.315"/>
<rect x="308.709" y="10.431" fill="#FF1E00" width="31.114" height="4.314"/>
<rect x="376.203" y="235.082" fill="#F20068" width="78.167" height="422.612"/>
<rect x="361.747" y="133.981" fill="#F20068" width="83.057" height="55.619"/>
<rect x="377.772" y="71.665" fill="#F20068" width="57.172" height="24.387"/>
<rect x="395.63" y="19.894" fill="#F20068" width="39.314" height="8.301"/>
<rect x="376.203" fill="#F20068" width="25.42" height="2.888"/>
<rect x="221.291" y="414.784" fill="#FFFFFF" width="87.418" height="14.831"/>
<rect x="308.709" y="380.924" fill="#FFFFFF" width="67.494" height="14.832"/>
<rect x="376.203" y="331.982" fill="#FFFFFF" width="78.167" height="14.831"/>
<rect x="99.042" y="298.363" fill="#FFD713" width="122.248" height="359.331"/>
<rect x="99.042" y="373.508" fill="#FFFFFF" width="122.248" height="14.832"/>
<path fill="none" stroke="#494949" stroke-miterlimit="10" d="M544.4,668.186c0,5.385-4.365,9.75-9.75,9.75H19.097
	c-5.385,0-9.75-4.365-9.75-9.75V413.254c0-5.385,4.365-9.75,9.75-9.75H534.65c5.385,0,9.75,4.365,9.75,9.75V668.186z"/>
</svg>
