<svg xmlns="http://www.w3.org/2000/svg" width="553.747" height="686.683" viewBox="0 0 553.747 686.683"><path fill="#FF1E00" d="M308.71 126.03h89.623v31.848H308.71z"/><path stroke="#494949" stroke-miterlimit="10" d="M40.646 533.78c3.89 0 7.042 3.15 7.042 7.04 0 3.885-3.152 7.036-7.042 7.036-3.886 0-7.037-3.15-7.037-7.036 0-3.89 3.15-7.04 7.036-7.04zM513.4 529.38c6.322 0 11.443 5.122 11.443 11.444 0 6.31-5.12 11.433-11.444 11.433-6.313 0-11.434-5.122-11.434-11.433 0-6.322 5.122-11.444 11.433-11.444zM513.398 524.056c9.264 0 16.768 7.504 16.768 16.77 0 9.25-7.504 16.753-16.768 16.753-9.25 0-16.755-7.504-16.755-16.754 0-9.266 7.506-16.77 16.755-16.77z" fill="none"/><path fill="#494949" d="M71.292 423.94h411.164v233.754H71.292z"/><path stroke="#494949" stroke-width="2" stroke-miterlimit="10" d="M552.747 667.978c0 9.778-7.927 17.705-17.705 17.705H18.705C8.927 685.683 1 677.756 1 667.978v-254.32c0-9.777 7.927-17.704 17.705-17.704h516.337c9.778 0 17.705 7.927 17.705 17.705v254.318z" fill="none"/><path fill="#FFD713" d="M99.042 189.6h147.2v58.748H99.04zM132.252 126.997h122.25v29.085h-122.25zM113.295 59.47h84.675v12.195h-84.675zM179.54 14.745h36.86v5.272h-36.86z"/><path fill="#FF9F1D" d="M221.29 346.813h87.42v310.88h-87.42zM183.77 265.734h124.94v44.823H183.77zM221.29 197.51h87.42v31.97h-87.42zM209.478 138.574h132.978v12.486H209.478zM189.29 101.005h87.418v6.396h-87.42zM243.514 56.272h33.195v6.396h-33.196z"/><path fill="#FF1E00" d="M308.71 298.363h67.493v359.33H308.71zM294.513 184.655h81.69v63.692h-81.69zM297.618 71.665h53.295v10.948h-53.295zM344.82 44.486h48.567V48.8H344.82zM308.71 10.43h31.113v4.315H308.71z"/><path fill="#F20068" d="M376.203 235.082h78.167v422.612h-78.167zM361.747 133.98h83.057v55.62h-83.057zM377.772 71.665h57.172v24.387h-57.172zM395.63 19.894h39.314v8.3H395.63zM376.203 0h25.42v2.888h-25.42z"/><path fill="#fff" d="M221.29 414.784h87.42v14.83h-87.42zM308.71 380.924h67.493v14.832H308.71zM376.203 331.982h78.167v14.83h-78.167z"/><path fill="#FFD713" d="M99.042 298.363H221.29v359.33H99.042z"/><path fill="#fff" d="M99.042 373.508H221.29v14.832H99.042z"/><path stroke="#494949" stroke-miterlimit="10" d="M544.4 668.186c0 5.385-4.365 9.75-9.75 9.75H19.097c-5.385 0-9.75-4.365-9.75-9.75V413.254c0-5.385 4.365-9.75 9.75-9.75H534.65c5.385 0 9.75 4.365 9.75 9.75v254.932z" fill="none"/></svg>