<svg xmlns="http://www.w3.org/2000/svg" width="107.044" height="27" viewBox="0 0 107.044 27"><path opacity=".8" fill-rule="evenodd" clip-rule="evenodd" d="M106.73 22.552c-1.44 1.943-4.033 4.134-8.272 4.052-2.15-.05-4.364-.772-5.796-2.428-1.208 1.01-3.154 2.024-5.027 2.055-2.49.044-4.343-1.945-5.546-4.754-.537.216-1.13.246-1.775.246-.398 0-.863-.08-1.25-.16-.016.562-.245 1.323-.516 2.085-.716 1.964-2.158 3.287-3.993 3.287-2.435 0-4.697-2.165-5.784-5.49-.083-.253-.153-.57-.224-.98-.53.735-1.067 1.258-1.92 1.258-.4 0-.865-.08-1.25-.16-.017.562-.247 1.323-.517 2.085-.715 1.964-2.158 3.287-3.993 3.287-2.434 0-4.696-2.165-5.784-5.49-.09-.278-.168-.635-.244-1.106-.524.81-.984 1.385-1.9 1.385-.398 0-.863-.08-1.25-.16-.015.562-.245 1.323-.515 2.085-.715 1.964-2.158 3.287-3.993 3.287-2.434 0-4.697-2.165-5.784-5.49-.092-.282-.17-.643-.247-1.123-.034.02-.07.038-.106.054-.13.22-.292.478-.494.79-.783 1.283-3.024 5.064-5.288 5.105-1.597.023-2.786-.864-3.532-2.41-1 1.146-2.45 2.41-4.08 2.41-2.92 0-4.69-2.892-3.99-9.34.082-.828-.042-1.158-.865-1.282-.494-.083-1.03-.123-1.564-.207-.513 1.72-1.285 3.48-2.27 5.182l-.073.177c-1.098 1.645-2.694 4.8-5.048 4.8-1.356 0-2.43-.722-3.276-1.723C9.36 25.797 7.836 27 6.042 27c-2.753 0-4.928-2.25-5.61-4.333-1.466-4.49 1.005-8.98 4.283-8.98.798 0 1.675-.032 2.497.41-.605-4.05-.408-8.376.776-11.102.457-1.042 1.234-2.083 2.59-2.083 1.915 0 2.982 2.044 3.375 3.245 1.152 3.527.187 11.992-2.302 17.563.7 1.403 1.124 1.523 1.42 1.365 1.923-1.025 2.626-2.13 3.168-3.063l.016-.056.11-.158c.112-.195.222-.383.34-.557l.39-.776c.042-.063.09-.116.138-.16.646-1.265 1.185-2.663 1.492-3.7-.864-.62-1.605-1.82-1.646-3.184-.042-.95.37-1.942 1.564-2.066 1.316-.125 2.84 1.28 3.004 3.307.988.29 2.14.29 3.128.497 1.687.33 2.346 1.24 2.14 3.266-.247 2.563-.453 5.953.864 6.408.95.33 1.964-.87 3.1-2.386-.064-.7-.083-1.45-.057-2.244.042-1.694.207-3.844.495-5.126.124-.496.33-.702.823-.62.453.084.905.29 1.276.58.494.37.74.99.658 1.983-.123 1.86-.206 4.01-.123 5.374.122 1.778.698 2.605 1.603 2.647 1.207.04 2.354-2.86 3.596-4.614.014-.024.028-.05.045-.075l.43-.642c.428-.642.804-1.322 1.22-2.004-.1-6.292.86-15.068 4.053-15.068 1.157 0 2.096 1.042 2.423 2.044 1.088 3.326-1.994 10.5-4.103 14.427.032 1.684.21 3.207.577 4.33.89 2.724 2.085 3.085 2.604 3.085.798 0 1.827-.882 2.393-2.325.257-.68.46-1.402.423-2.004-1.55-.96-4.064-6.33-1.55-6.33 1.915 0 3.8 3.566 3.856 5.33.185.08.397.12.637.12.31 0 .44-.21.555-.51.015-.147.067-.296.164-.444.067-.17.147-.347.262-.517l.43-.643c.063-.097.135-.175.212-.235.25-.413.492-.836.75-1.26-.1-6.293.862-15.07 4.054-15.07 1.156 0 2.096 1.043 2.424 2.045 1.086 3.326-1.996 10.5-4.104 14.427.03 1.684.21 3.207.576 4.33.89 2.724 2.086 3.085 2.604 3.085.8 0 1.827-.883 2.393-2.326.257-.68.46-1.402.423-2.004-1.552-.96-4.063-6.332-1.55-6.332 1.914 0 3.8 3.567 3.855 5.33.186.08.398.12.64.12.253 0 .414-.15.55-.375-.01-.195.042-.39.172-.586l.43-.642c.43-.642.805-1.322 1.22-2.004-.102-6.29.86-15.067 4.053-15.067 1.157 0 2.096 1.042 2.424 2.044 1.086 3.326-1.996 10.5-4.104 14.427.03 1.684.21 3.207.576 4.33.89 2.724 2.086 3.085 2.604 3.085.798 0 1.826-.883 2.393-2.326.256-.68.46-1.402.423-2.004-1.552-.96-4.064-6.332-1.55-6.332 1.914 0 3.798 3.567 3.854 5.33.187.08.398.12.64.12.597 0 1.13.095 1.585-.586l.043-.066c-.538-2.152-.78-4.508-.725-6.695C80.597 5.69 82.12-.43 85.33.026c2.47.33 4.265 3.827 3.745 10.458-.325 3.972-1.873 6.096-4.178 8.907.7 1.405 1.508 3.51 2.736 3.576 1.42.08 2.636-.318 3.71-1.347-.148-.57-.236-1.194-.253-1.878-.083-3.803 2.592-8.103 6.543-8.103 2.264 0 4.115 1.693 4.074 4.175-.04 2.604-2.47 5.787-6.05 6.737.7.58 1.688.91 2.88.992 2.8.166 4.94-1.033 6.874-3.844.29-.413.535-.33.824-.042.246.248.535.786.658 1.116.167.456.29 1.16-.163 1.778zM8.563 19.947c-.3-.92-.588-1.923-.81-2.965-.94-.922-1.695-.888-2.254-.888-1.755 0-3.917 2.766-2.673 6.573.602 1.843 2.192 1.566 2.79 1.566 1.476 0 2.373-1.04 3.368-3.124-.172-.4-.302-.8-.42-1.163zm2.996-15.79c-.144-.44-.262-.68-.462-.68-.12 0-.253.08-.427.28-1.765 2.044-1.167 9.657-.598 12.863.078.36.234.963.234.963 1.42-4.93 2.026-11.06 1.254-13.426zm33.59-.67c-.826.75-1.876 5.606-1.863 7.855.976-1.556 2.06-6.452 1.862-7.854zm13.685 0c-.733.82-1.853 5.63-1.862 7.855.906-1.58 2.035-6.474 1.862-7.854zm11.824 7.855c.86-1.625 2.01-6.452 1.86-7.854-.732.82-1.897 5.65-1.86 7.854zm15.565-2.38c.158-2.353-.318-4.93-1.06-5.054-.657-.124-1.44 3.184-1.645 7.73-.082 1.9-.102 2.583.268 4.402.42-.416 2.115-2.608 2.437-7.078zm12.233 6.853c-.04-.66-.494-1.117-1.028-1.075-1.523.083-3.046 2.274-3.046 4.795 0 .207 0 .414.04.58 2.758-.95 4.075-3.06 4.034-4.3zm-65.58-4.673c-.982-.034-2.374-.853-2.374-2.556 0-1.67 1.425-2.284 2.24-2.25 1.22.033 2.272 1.057 2.24 2.522-.035 1.432-.917 2.317-2.105 2.284z"/></svg>