<?xml version="1.0" encoding="utf-8"?>
<!-- Generator: Adobe Illustrator 16.0.0, SVG Export Plug-In . SVG Version: 6.00 Build 0)  -->
<!DOCTYPE svg PUBLIC "-//W3C//DTD SVG 1.1//EN" "http://www.w3.org/Graphics/SVG/1.1/DTD/svg11.dtd">
<svg version="1.1" id="Layer_1" xmlns="http://www.w3.org/2000/svg" xmlns:xlink="http://www.w3.org/1999/xlink" x="0px" y="0px"
	 width="107.044px" height="27px" viewBox="0 0 107.044 27" enable-background="new 0 0 107.044 27" xml:space="preserve">
<path opacity="0.8" fill-rule="evenodd" clip-rule="evenodd" d="M106.729,22.552c-1.44,1.943-4.032,4.134-8.271,4.052
	c-2.151-0.051-4.364-0.772-5.796-2.428c-1.208,1.011-3.154,2.024-5.027,2.055c-2.49,0.043-4.343-1.946-5.546-4.755
	c-0.536,0.216-1.13,0.246-1.774,0.246c-0.398,0-0.863-0.079-1.249-0.159c-0.017,0.561-0.246,1.322-0.517,2.084
	c-0.715,1.964-2.157,3.287-3.992,3.287c-2.435,0-4.697-2.165-5.784-5.491c-0.083-0.252-0.153-0.569-0.224-0.979
	c-0.529,0.735-1.066,1.258-1.92,1.258c-0.398,0-0.864-0.079-1.25-0.159c-0.016,0.561-0.246,1.322-0.516,2.084
	c-0.715,1.964-2.158,3.287-3.993,3.287c-2.434,0-4.696-2.165-5.784-5.491c-0.09-0.277-0.168-0.634-0.244-1.105
	c-0.524,0.809-0.984,1.385-1.899,1.385c-0.399,0-0.864-0.079-1.25-0.159c-0.016,0.561-0.246,1.322-0.516,2.084
	c-0.715,1.964-2.158,3.287-3.993,3.287c-2.434,0-4.697-2.165-5.784-5.491c-0.092-0.281-0.169-0.642-0.247-1.122
	c-0.034,0.021-0.069,0.038-0.106,0.054c-0.13,0.219-0.292,0.478-0.494,0.789c-0.783,1.284-3.024,5.065-5.288,5.106
	c-1.597,0.022-2.786-0.865-3.532-2.412c-1,1.147-2.451,2.412-4.079,2.412c-2.922,0-4.692-2.893-3.992-9.342
	c0.083-0.827-0.041-1.157-0.864-1.281c-0.494-0.083-1.029-0.123-1.564-0.207c-0.513,1.72-1.285,3.479-2.271,5.181l-0.072,0.177
	c-1.099,1.646-2.695,4.802-5.049,4.802c-1.356,0-2.43-0.723-3.276-1.724C9.359,25.798,7.837,27,6.042,27
	c-2.753,0-4.928-2.249-5.609-4.333c-1.467-4.489,1.004-8.979,4.282-8.979c0.798,0,1.675-0.033,2.497,0.408
	C6.607,10.048,6.804,5.721,7.988,2.995c0.457-1.042,1.234-2.083,2.59-2.083c1.915,0,2.982,2.044,3.375,3.245
	c1.152,3.527,0.187,11.992-2.302,17.563c0.698,1.403,1.123,1.523,1.42,1.365c1.922-1.025,2.625-2.131,3.167-3.063
	c0.005-0.018,0.011-0.037,0.016-0.056c0.037-0.052,0.073-0.104,0.109-0.158c0.113-0.195,0.223-0.383,0.34-0.557l0.391-0.777
	c0.042-0.063,0.089-0.116,0.138-0.161c0.646-1.264,1.185-2.662,1.492-3.7c-0.864-0.619-1.605-1.818-1.646-3.183
	c-0.042-0.95,0.37-1.942,1.564-2.066c1.316-0.125,2.839,1.28,3.004,3.307c0.988,0.289,2.14,0.289,3.128,0.496
	c1.687,0.33,2.346,1.24,2.14,3.266c-0.247,2.563-0.453,5.953,0.864,6.408c0.95,0.329,1.964-0.87,3.101-2.387
	c-0.065-0.701-0.084-1.451-0.058-2.244c0.041-1.694,0.206-3.844,0.494-5.126c0.124-0.496,0.33-0.702,0.823-0.619
	c0.453,0.083,0.905,0.289,1.276,0.578c0.494,0.372,0.741,0.992,0.658,1.984c-0.123,1.86-0.206,4.009-0.123,5.374
	c0.123,1.777,0.699,2.604,1.604,2.646c1.207,0.04,2.354-2.86,3.596-4.614c0.015-0.024,0.029-0.05,0.046-0.075l0.429-0.642
	c0.429-0.642,0.805-1.322,1.221-2.004c-0.101-6.292,0.861-15.068,4.053-15.068c1.157,0,2.096,1.042,2.423,2.044
	c1.087,3.326-1.995,10.499-4.104,14.427c0.032,1.684,0.21,3.207,0.577,4.329c0.89,2.725,2.085,3.086,2.604,3.086
	c0.798,0,1.827-0.882,2.393-2.325c0.256-0.681,0.459-1.402,0.422-2.004c-1.551-0.961-4.064-6.332-1.55-6.332
	c1.915,0,3.799,3.567,3.856,5.33c0.186,0.081,0.398,0.121,0.638,0.121c0.309,0,0.439-0.211,0.555-0.509
	c0.015-0.148,0.067-0.297,0.164-0.445c0.067-0.17,0.147-0.347,0.262-0.517l0.429-0.642c0.064-0.097,0.136-0.175,0.213-0.235
	c0.25-0.413,0.492-0.836,0.751-1.26C54.43,9.419,55.392,0.643,58.584,0.643c1.156,0,2.096,1.042,2.424,2.044
	c1.086,3.326-1.996,10.499-4.104,14.427c0.031,1.684,0.209,3.207,0.576,4.329c0.891,2.725,2.086,3.086,2.604,3.086
	c0.799,0,1.827-0.882,2.393-2.325c0.257-0.681,0.46-1.402,0.423-2.004c-1.552-0.961-4.063-6.332-1.55-6.332
	c1.914,0,3.799,3.567,3.855,5.33c0.186,0.081,0.398,0.121,0.639,0.121c0.254,0,0.415-0.151,0.551-0.376
	c-0.01-0.195,0.042-0.391,0.172-0.586l0.43-0.642c0.429-0.642,0.805-1.322,1.221-2.004C68.115,9.419,69.078,0.643,72.27,0.643
	c1.157,0,2.096,1.042,2.424,2.044c1.086,3.326-1.996,10.499-4.104,14.427c0.031,1.684,0.21,3.207,0.576,4.329
	c0.891,2.725,2.086,3.086,2.604,3.086c0.798,0,1.826-0.882,2.393-2.325c0.256-0.681,0.459-1.402,0.423-2.004
	c-1.552-0.961-4.064-6.332-1.551-6.332c1.915,0,3.799,3.567,3.855,5.33c0.187,0.081,0.398,0.121,0.639,0.121
	c0.598,0,1.13,0.094,1.586-0.587l0.043-0.066c-0.538-2.152-0.781-4.508-0.725-6.695c0.164-6.282,1.688-12.401,4.897-11.946
	c2.469,0.33,4.265,3.827,3.745,10.458c-0.325,3.972-1.873,6.096-4.178,8.907c0.7,1.405,1.508,3.509,2.736,3.576
	c1.419,0.081,2.636-0.318,3.709-1.347c-0.147-0.569-0.235-1.193-0.252-1.877c-0.083-3.803,2.592-8.103,6.543-8.103
	c2.264,0,4.115,1.694,4.074,4.176c-0.041,2.604-2.469,5.787-6.05,6.737c0.7,0.579,1.688,0.91,2.881,0.992
	c2.798,0.166,4.938-1.033,6.873-3.844c0.288-0.413,0.534-0.331,0.823-0.042c0.246,0.248,0.535,0.786,0.658,1.116
	C107.059,21.23,107.183,21.933,106.729,22.552z M8.564,19.947c-0.301-0.921-0.588-1.923-0.81-2.965
	C6.815,16.06,6.059,16.094,5.5,16.094c-1.755,0-3.917,2.766-2.673,6.573c0.602,1.843,2.192,1.566,2.79,1.566
	c1.476,0,2.373-1.04,3.368-3.124C8.813,20.709,8.683,20.309,8.564,19.947z M11.56,4.157c-0.144-0.44-0.262-0.68-0.462-0.68
	c-0.12,0-0.253,0.079-0.427,0.28c-1.766,2.044-1.168,9.657-0.599,12.863c0.078,0.361,0.234,0.963,0.234,0.963
	C11.727,12.654,12.332,6.522,11.56,4.157z M45.149,3.488c-0.825,0.75-1.875,5.605-1.862,7.854
	C44.263,9.786,45.346,4.89,45.149,3.488z M58.835,3.488c-0.733,0.819-1.853,5.629-1.862,7.854
	C57.879,9.763,59.008,4.868,58.835,3.488z M70.659,11.342c0.86-1.625,2.012-6.452,1.862-7.854
	C71.788,4.307,70.623,9.139,70.659,11.342z M86.225,8.962c0.158-2.353-0.318-4.93-1.059-5.054c-0.658-0.124-1.44,3.184-1.646,7.73
	c-0.082,1.901-0.102,2.583,0.268,4.402C84.207,15.624,85.903,13.432,86.225,8.962z M98.458,15.815
	c-0.041-0.661-0.494-1.117-1.028-1.075c-1.523,0.083-3.046,2.274-3.046,4.795c0,0.207,0,0.414,0.041,0.58
	C97.182,19.164,98.499,17.055,98.458,15.815z M32.879,11.142c-0.983-0.034-2.375-0.853-2.375-2.556c0-1.671,1.425-2.284,2.239-2.249
	c1.222,0.032,2.273,1.056,2.24,2.521C34.949,10.29,34.067,11.175,32.879,11.142z"/>
</svg>
