<?xml version="1.0" encoding="utf-8"?>
<!-- Generator: Adobe Illustrator 16.0.0, SVG Export Plug-In . SVG Version: 6.00 Build 0)  -->
<!DOCTYPE svg PUBLIC "-//W3C//DTD SVG 1.1//EN" "http://www.w3.org/Graphics/SVG/1.1/DTD/svg11.dtd">
<svg version="1.1" id="Layer_1" xmlns="http://www.w3.org/2000/svg" xmlns:xlink="http://www.w3.org/1999/xlink" x="0px" y="0px"
	 width="102.5px" height="21.1px" viewBox="0 0 102.5 21.1" enable-background="new 0 0 102.5 21.1" xml:space="preserve">
<path fill-rule="evenodd" clip-rule="evenodd" fill="#323232" d="M102.5,20.8c-0.2,0-0.3,0-0.4,0c-1.3,0-2.7,0-4,0
	c-0.2,0-0.4-0.1-0.5-0.3c-1.1-1.9-2.3-3.8-3.4-5.7c-0.1-0.1-0.1-0.2-0.3-0.3c0,2.1,0,4.2,0,6.3c-0.2,0-0.3,0-0.4,0
	c-1.2,0-2.4,0-3.6,0c-0.3,0-0.4-0.1-0.4-0.3c0-6.4,0-12.8,0-19.1c0-0.2,0-0.3,0.2-0.4c1.4-0.2,2.7-0.5,4.1-0.7c0,4.2,0,8.3,0,12.4
	c0,0,0.1,0,0.1,0c0.1-0.1,0.1-0.2,0.2-0.3c1.1-1.8,2.3-3.6,3.4-5.5c0.1-0.2,0.2-0.3,0.5-0.3c1.4,0,2.7,0,4.1,0c0.1,0,0.2,0,0.4,0
	c-0.1,0.2-0.2,0.3-0.3,0.4c-1.3,2-2.6,4.1-3.9,6.1c-0.1,0.2-0.1,0.4,0,0.6c1.3,2.2,2.6,4.3,3.9,6.5
	C102.4,20.6,102.4,20.7,102.5,20.8z"/>
<path fill-rule="evenodd" clip-rule="evenodd" fill="#323232" d="M9.8,6.8C9.7,7.6,9.6,8.3,9.6,8.9c0,0.4-0.1,0.8-0.1,1.2
	c0,0.2-0.1,0.4-0.4,0.3c-0.7,0-1.4,0-2.1,0c-0.3,0-0.4,0.1-0.4,0.4c0,3.2,0,6.3,0,9.5c0,0.2,0,0.3,0,0.5c-0.5,0-0.9,0-1.4,0
	c-0.9,0-1.8,0-2.6,0c-0.3,0-0.4-0.1-0.4-0.4c0-3.2,0-6.3,0-9.5c0-0.1,0-0.3,0-0.5c-0.4,0-0.9,0-1.3,0C0,10.5,0,10.5,0,9.6
	C0,8.8,0,8,0,7.2c0-0.3,0.1-0.4,0.4-0.4c0.5,0,1,0,1.4,0c0.2,0,0.3-0.1,0.3-0.3c0-0.9,0-1.8,0.1-2.7c0.1-2.1,1.4-3.5,3.5-3.7
	C7,0,8.3,0,9.6,0c0.1,0,0.2,0.1,0.2,0.2c0,1.1,0,2.1,0,3.2c0,0.2-0.1,0.2-0.3,0.2c-0.6,0-1.1,0-1.7,0c-0.2,0-0.4,0-0.6,0.1
	C6.8,3.8,6.6,4.1,6.6,4.5c0,0.7,0,1.4,0,2.1c0,0.2,0.1,0.3,0.3,0.3c0.8,0,1.6,0,2.5,0C9.5,6.8,9.6,6.8,9.8,6.8z"/>
<path fill-rule="evenodd" clip-rule="evenodd" fill="#323232" d="M33.4,10.7c-0.8-0.1-1.5-0.3-2.2-0.3c-0.9-0.1-1.9-0.1-2.8,0
	C27.5,10.4,27,11,27,11.8c0,1.3,0,2.6,0,4c0,0.9,0.5,1.4,1.4,1.5c1.4,0.2,2.9-0.1,4.3-0.3c0.2,0,0.4-0.1,0.6-0.1c0,0,0,0,0.1,0
	c0,0.1,0,0.2,0,0.3c0,1,0,1.9,0,2.9c0,0.3-0.1,0.3-0.3,0.4c-1.6,0.3-3.1,0.5-4.7,0.5c-1-0.1-2-0.2-2.9-0.7c-1.5-0.7-2.4-1.9-2.7-3.5
	c-0.4-1.9-0.3-3.9,0-5.8c0.4-2.3,1.8-3.7,4.1-4.2c1.2-0.3,2.5-0.3,3.8-0.1c0.9,0.1,1.7,0.3,2.6,0.4c0.2,0,0.3,0.1,0.3,0.3
	c0,1.1,0,2.1,0,3.2C33.4,10.6,33.4,10.6,33.4,10.7z"/>
<path fill-rule="evenodd" clip-rule="evenodd" fill="#323232" d="M60.9,12.7c0-0.9,0-1.9-0.1-2.8c-0.2-1.6-1.1-2.7-2.7-3.1
	c-1.3-0.3-2.6-0.3-4-0.1c-0.5,0.1-1,0.2-1.5,0.3c0-2.2,0-4.5,0-6.7c-0.1,0-0.1,0-0.2,0c-1.3,0.2-2.6,0.4-3.8,0.6
	c-0.3,0-0.3,0.2-0.3,0.4c0,6.2,0,12.4,0,18.6c0,0.5,0,0.5,0.5,0.6c1.2,0.1,2.4,0.3,3.6,0.4c1.5,0.1,3.1,0.1,4.6-0.2
	c2.5-0.6,3.8-2.1,3.9-4.6C60.8,15,60.9,13.8,60.9,12.7z M56.4,15.9c0,0.9-0.6,1.4-1.5,1.5c-0.3,0-0.6,0.1-0.9,0.1
	c-0.5,0-0.9,0-1.4,0c0-0.6,0-1.1,0-1.6c0-1.6,0-3.2,0-4.7c0-0.2,0.1-0.3,0.3-0.4c0.8-0.4,1.6-0.6,2.5-0.4c0.6,0.1,1,0.6,1,1.2
	C56.5,13,56.5,14.4,56.4,15.9z"/>
<path fill-rule="evenodd" clip-rule="evenodd" fill="#323232" d="M46.7,10.8c-0.2-1.8-1.3-3.1-3.1-3.7c-1.6-0.5-3.2-0.5-4.9-0.3
	c-2.5,0.4-4,2-4.2,4.5c-0.1,1.7-0.1,3.4,0.1,5.1c0.2,1.9,1.3,3.4,3.1,4.1c0.7,0.3,1.6,0.5,2.4,0.5c2,0.1,4,0,6-0.5
	c0.2,0,0.3-0.1,0.3-0.3c0-1,0-2,0-3c0-0.1,0-0.2,0-0.2c-0.1,0-0.1,0-0.1,0c-1.2,0.1-2.4,0.3-3.6,0.4c-0.9,0.1-1.8,0-2.6-0.1
	c-0.5-0.1-0.9-0.4-1-1C39,15.9,39,15.6,39,15.1c0.2,0,0.3,0,0.4,0c1.2,0,2.3,0,3.5,0c1.2,0,2.4,0,3.6,0c0.2,0,0.3,0,0.3-0.2
	C46.8,13.5,46.9,12.1,46.7,10.8z M41.7,12.2c-0.3,0-0.6,0-0.9,0c-0.5,0-1,0-1.4,0c-0.2,0-0.3-0.1-0.3-0.3c0-0.3,0-0.6,0.1-0.9
	c0.1-0.6,0.5-0.9,1.1-1c0.4-0.1,0.8-0.1,1.2,0c0.7,0.1,1,0.6,1.1,1.3C42.5,12.2,42.5,12.2,41.7,12.2z"/>
<path fill-rule="evenodd" clip-rule="evenodd" fill="#323232" d="M88.3,11.2c-0.2-2-1.2-3.4-3.2-4.1c-1.8-0.6-3.6-0.6-5.4-0.2
	c-2.3,0.6-3.6,2-3.8,4.3c-0.2,1.8-0.2,3.7,0,5.5c0.3,2,1.4,3.4,3.4,4c1.6,0.5,3.3,0.5,5,0.2c2.2-0.5,3.6-1.8,4-4.1
	c0.1-0.9,0.1-1.9,0.2-2.7C88.4,12.9,88.4,12,88.3,11.2z M84,15.6c0,1-0.5,1.6-1.4,1.7c0,0,0,0,0,0c0,0-0.1,0-0.1,0c0,0-0.1,0-0.1,0
	c0,0,0,0,0,0c0,0,0,0,0,0c0,0,0,0-0.1,0c-0.3,0-0.7,0-1-0.1c-0.7-0.2-1.2-0.8-1.2-1.5c0-0.7,0-1.3,0-2c0-0.6,0-1.3,0-1.9
	c0-0.9,0.5-1.5,1.4-1.6c0.1,0,0.1,0,0.2,0c0.2,0,0.5,0,0.8,0c0,0,0,0,0,0c0,0,0.1,0,0.1,0c0,0,0.1,0,0.1,0c0,0,0,0,0,0s0,0,0,0
	c0,0,0,0,0,0c0,0,0,0,0.1,0c0.7,0.2,1.1,0.8,1.1,1.5c0,0.7,0,1.3,0,2C84,14.4,84,15,84,15.6z"/>
<path fill-rule="evenodd" clip-rule="evenodd" fill="#323232" d="M74.5,11c-0.3-2-1.4-3.3-3.3-4c-1.7-0.5-3.5-0.5-5.2-0.1
	c-2.1,0.5-3.5,1.8-3.8,4c-0.1,1-0.1,1.9-0.2,2.7c0,1.1,0,2,0.1,2.9c0.2,2,1.3,3.5,3.3,4.1c1.7,0.6,3.4,0.6,5.2,0.2
	c2.4-0.5,3.7-1.9,4-4.3C74.7,14.6,74.7,12.8,74.5,11z M70.2,13.8c0,0.6,0,1.2,0,1.8c0,1.1-0.6,1.7-1.7,1.8c-0.3,0-0.6,0-0.9-0.1
	c-0.7-0.1-1.2-0.7-1.2-1.5c0-1.3,0-2.6,0-3.9c0-0.9,0.6-1.5,1.5-1.6c0.4,0,0.7,0,1.1,0.1c0.8,0.1,1.2,0.7,1.2,1.5
	C70.2,12.5,70.2,13.2,70.2,13.8C70.2,13.8,70.2,13.8,70.2,13.8z"/>
<path fill-rule="evenodd" clip-rule="evenodd" fill="#323232" d="M21.2,12.1c0-0.6,0-1.2-0.1-1.8c-0.2-1.5-1-2.6-2.6-3
	c-0.7-0.2-1.4-0.3-2.1-0.3c-1.6-0.1-3.3,0-4.9-0.1c-0.3,0-0.4,0.1-0.4,0.4c-0.1,1-0.2,2-0.3,2.9c0,0.3,0.1,0.4,0.3,0.4
	c1.1,0,2.2,0,3.3,0c0.5,0,1,0.1,1.6,0.1c0.5,0.1,0.8,0.4,0.8,0.9c0,0.4,0.1,0.9,0.1,1.4c-0.2,0-0.3,0-0.4,0c-0.9,0-1.7,0-2.6,0
	c-0.6,0-1.2,0.1-1.8,0.2c-1.3,0.3-2.2,1-2.6,2.2c-0.3,1-0.3,2.1,0,3.1c0.4,1.3,1.3,2.2,2.7,2.5c1,0.2,2.1,0.1,3.1-0.1
	c0.7-0.2,1.4-0.5,2-0.7c0,0.1,0.1,0.3,0.1,0.4c0,0.3,0.1,0.4,0.4,0.4c1,0,1.9,0,2.9,0c0.3,0,0.4-0.1,0.4-0.4
	C21.2,17.7,21.2,14.9,21.2,12.1z M16.8,17.2c0,0.1,0,0.2-0.1,0.2c-0.7,0.4-1.5,0.7-2.3,0.5c-0.4-0.1-0.7-0.4-0.7-0.8
	c0-0.1,0-0.3,0-0.4c0-0.5,0.2-0.7,0.7-0.7c0.8,0,1.5,0,2.4,0C16.8,16.3,16.9,16.8,16.8,17.2z"/>
</svg>
