<?xml version="1.0" encoding="utf-8"?>
<!-- Generator: Adobe Illustrator 16.0.0, SVG Export Plug-In . SVG Version: 6.00 Build 0)  -->
<!DOCTYPE svg PUBLIC "-//W3C//DTD SVG 1.1//EN" "http://www.w3.org/Graphics/SVG/1.1/DTD/svg11.dtd">
<svg version="1.1" id="Слой_1" xmlns="http://www.w3.org/2000/svg" xmlns:xlink="http://www.w3.org/1999/xlink" x="0px" y="0px"
	 width="491.787px" height="449.853px" viewBox="0 0 491.787 449.853" enable-background="new 0 0 491.787 449.853"
	 xml:space="preserve">
<circle fill="none" stroke="#C4C4C4" stroke-width="2" stroke-miterlimit="10" cx="245.669" cy="224.926" r="152.687"/>
<g>
	<line fill="none" stroke="#C4C4C4" stroke-miterlimit="10" x1="65.138" y1="405.46" x2="426.202" y2="44.395"/>
	<line fill="none" stroke="#C4C4C4" stroke-miterlimit="10" x1="426.202" y1="405.46" x2="65.138" y2="44.395"/>
</g>
<path fill="none" stroke="#C4C4C4" stroke-width="3" stroke-miterlimit="10" d="M420.952,322.221c0,43.072-34.918,77.99-77.99,77.99
	H148.376c-43.072,0-77.99-34.918-77.99-77.99V127.635c0-43.072,34.918-77.99,77.99-77.99h194.586c43.072,0,77.99,34.918,77.99,77.99
	V322.221z"/>
<rect x="93.435" y="72.692" fill="none" stroke="#C4C4C4" stroke-width="2" stroke-miterlimit="10" width="304.471" height="304.47"/>
<line fill="none" stroke="#C4C4C4" stroke-miterlimit="10" x1="245.671" y1="1.083" x2="245.671" y2="448.77"/>
<line fill="none" stroke="#C4C4C4" stroke-miterlimit="10" x1="0" y1="224.928" x2="491.338" y2="224.928"/>
<circle fill="none" stroke="#C4C4C4" stroke-width="2" stroke-miterlimit="10" cx="245.669" cy="224.926" r="88.927"/>
<line fill="none" stroke="#C4C4C4" stroke-miterlimit="10" x1="182.495" y1="0" x2="182.495" y2="449.853"/>
<line fill="none" stroke="#C4C4C4" stroke-miterlimit="10" x1="308.845" y1="0" x2="308.845" y2="449.853"/>
<line fill="none" stroke="#C4C4C4" stroke-miterlimit="10" x1="0.452" y1="288.101" x2="491.787" y2="288.101"/>
<line fill="none" stroke="#C4C4C4" stroke-miterlimit="10" x1="0.002" y1="161.754" x2="491.337" y2="161.754"/>
<path fill="#ED2961" d="M420.952,161.754v160.655c0,43.073-34.918,77.991-77.99,77.991H148.377c-21.433,0-40.844-8.643-54.94-22.636
	h-0.002V355.09c0-36.894,29.907-66.801,66.802-66.801h85.435c34.891,0,63.174-28.281,63.174-63.173
	c0-34.993,28.37-63.362,63.365-63.362H420.952z"/>
<path fill="#3FCAFF" d="M353.958,332.765L353.958,332.765c27.557-27.62,44.594-65.739,44.594-107.837
	c0-22.532-4.882-43.922-13.643-63.174h-12.953c-34.995,0-63.363,28.369-63.363,63.362c0,34.892-28.283,63.173-63.174,63.173h-85.437
	c-16.93,0-32.377,6.31-44.149,16.69c26.888,43.582,75.065,72.635,130.033,72.635h152.039L353.958,332.765z"/>
<path fill="none" stroke="#5B5B5B" stroke-width="2" stroke-miterlimit="10" d="M384.75,161.828
	c8.739,19.233,13.606,40.598,13.606,63.1c0,84.326-68.358,152.687-152.686,152.687c-54.928,0-103.08-29.003-129.979-72.532"/>
<circle fill="none" stroke="#5B5B5B" stroke-width="2" stroke-miterlimit="10" cx="245.67" cy="224.928" r="63.175"/>
<line fill="none" stroke="#5B5B5B" stroke-miterlimit="10" x1="426.202" y1="405.46" x2="290.438" y2="269.697"/>
</svg>
