<svg xmlns="http://www.w3.org/2000/svg" width="491.787" height="449.853" viewBox="0 0 491.787 449.853"><circle stroke="#C4C4C4" stroke-width="2" stroke-miterlimit="10" cx="245.669" cy="224.926" r="152.687" fill="none"/><g stroke="#C4C4C4" stroke-miterlimit="10" fill="none"><path d="M65.138 405.46L426.202 44.395M426.202 405.46L65.138 44.395"/></g><path stroke="#C4C4C4" stroke-width="3" stroke-miterlimit="10" d="M420.952 322.22c0 43.073-34.918 77.99-77.99 77.99H148.376c-43.072 0-77.99-34.917-77.99-77.99V127.636c0-43.072 34.918-77.99 77.99-77.99h194.586c43.072 0 77.99 34.918 77.99 77.99V322.22z" fill="none"/><path stroke="#C4C4C4" stroke-width="2" stroke-miterlimit="10" fill="none" d="M93.435 72.692h304.47v304.47H93.436z"/><path stroke="#C4C4C4" stroke-miterlimit="10" fill="none" d="M245.67 1.083V448.77M0 224.928h491.338"/><circle stroke="#C4C4C4" stroke-width="2" stroke-miterlimit="10" cx="245.669" cy="224.926" r="88.927" fill="none"/><path stroke="#C4C4C4" stroke-miterlimit="10" fill="none" d="M182.495 0v449.853M308.845 0v449.853M.452 288.1h491.335M.002 161.754h491.335"/><path fill="#ED2961" d="M420.952 161.754V322.41c0 43.072-34.918 77.99-77.99 77.99H148.377c-21.433 0-40.844-8.643-54.94-22.636h-.002V355.09c0-36.894 29.907-66.8 66.802-66.8h85.435c34.89 0 63.174-28.282 63.174-63.174 0-34.993 28.37-63.362 63.365-63.362h48.742z"/><path fill="#3FCAFF" d="M353.958 332.765c27.557-27.62 44.594-65.74 44.594-107.837 0-22.532-4.882-43.922-13.643-63.174h-12.954c-34.995 0-63.363 28.37-63.363 63.362 0 34.892-28.283 63.173-63.174 63.173H159.98c-16.93 0-32.377 6.31-44.15 16.69 26.89 43.58 75.066 72.634 130.034 72.634h152.04l-43.948-44.85z"/><path stroke="#5B5B5B" stroke-width="2" stroke-miterlimit="10" d="M384.75 161.828c8.74 19.233 13.606 40.598 13.606 63.1 0 84.326-68.358 152.687-152.686 152.687-54.928 0-103.08-29.003-129.98-72.532" fill="none"/><circle stroke="#5B5B5B" stroke-width="2" stroke-miterlimit="10" cx="245.67" cy="224.928" r="63.175" fill="none"/><path stroke="#5B5B5B" stroke-miterlimit="10" fill="none" d="M426.202 405.46L290.438 269.697"/></svg>