<svg xmlns="http://www.w3.org/2000/svg" width="92.21" height="140.343" viewBox="0 0 92.21 140.343"><g stroke="#098ECE" stroke-width="4" stroke-linecap="round" stroke-linejoin="round" stroke-miterlimit="10" fill="none"><path d="M24.19 89.007S18.63 73.592 9.283 59.903C5.178 53.893 2 47.51 2 40.243 2 20.51 21.748 2 46.105 2 70.465 2 90.21 20.51 90.21 40.243c0 7.25-2.738 13.94-7.25 19.628-11.432 14.412-16.3 38.347-16.3 38.347H25.288v5.975c0 1.325 1.147 2.4 2.562 2.4h36.368c1.414 0 2.56 1.074 2.56 2.398v3.575c0 1.324-1.146 2.4-2.56 2.4H27.993c-1.414 0-2.562 1.074-2.562 2.398v3.576c0 1.323 1.148 2.397 2.563 2.397h36.224c1.416 0 2.56 1.074 2.56 2.4l.002 6.044-20.676 6.56-20.673-7.39M59.515 70.172V36.334c0-.626-1.147-1.133-2.562-1.133h-3.817c-1.414 0-2.562.508-2.562 1.134v16.088c0 .626-1.147 1.133-2.56 1.133h-3.818c-1.415 0-2.562-.507-2.562-1.133V36.398c0-.626-1.148-1.133-2.562-1.133h-3.817c-1.414 0-2.562.507-2.562 1.133v33.774"/></g></svg>