<?xml version="1.0" encoding="utf-8"?>
<!-- Generator: Adobe Illustrator 16.0.0, SVG Export Plug-In . SVG Version: 6.00 Build 0)  -->
<!DOCTYPE svg PUBLIC "-//W3C//DTD SVG 1.1//EN" "http://www.w3.org/Graphics/SVG/1.1/DTD/svg11.dtd">
<svg version="1.1" id="Слой_1" xmlns="http://www.w3.org/2000/svg" xmlns:xlink="http://www.w3.org/1999/xlink" x="0px" y="0px"
	 width="92.21px" height="140.343px" viewBox="0 0 92.21 140.343" enable-background="new 0 0 92.21 140.343" xml:space="preserve">
<g>
	<path fill="none" stroke="#098ECE" stroke-width="4" stroke-linecap="round" stroke-linejoin="round" stroke-miterlimit="10" d="
		M24.191,89.007c0,0-5.561-15.415-14.909-29.104C5.178,53.894,2,47.509,2,40.243C2,20.509,21.748,2,46.105,2
		C70.465,2,90.21,20.509,90.21,40.243c0,7.251-2.738,13.939-7.25,19.628C71.528,74.282,66.661,98.217,66.661,98.217H25.287v5.975
		c0,1.325,1.147,2.399,2.562,2.399h36.369c1.414,0,2.561,1.075,2.561,2.399v3.575c0,1.324-1.147,2.4-2.561,2.4H27.993
		c-1.414,0-2.562,1.074-2.562,2.398v3.576c0,1.324,1.147,2.398,2.562,2.398h36.224c1.416,0,2.561,1.074,2.561,2.399l0.001,6.045
		l-20.675,6.56l-20.673-7.391"/>
	<path fill="none" stroke="#098ECE" stroke-width="4" stroke-linecap="round" stroke-linejoin="round" stroke-miterlimit="10" d="
		M59.515,70.172V36.334c0-0.626-1.147-1.133-2.562-1.133h-3.817c-1.414,0-2.562,0.507-2.562,1.133v16.088
		c0,0.626-1.147,1.133-2.561,1.133h-3.817c-1.415,0-2.562-0.507-2.562-1.133V36.398c0-0.626-1.148-1.133-2.562-1.133h-3.817
		c-1.414,0-2.562,0.507-2.562,1.133v33.774"/>
</g>
</svg>
