<?xml version="1.0" encoding="utf-8"?>
<!-- Generator: Adobe Illustrator 16.0.0, SVG Export Plug-In . SVG Version: 6.00 Build 0)  -->
<!DOCTYPE svg PUBLIC "-//W3C//DTD SVG 1.1//EN" "http://www.w3.org/Graphics/SVG/1.1/DTD/svg11.dtd">
<svg version="1.1" id="Layer_1" xmlns="http://www.w3.org/2000/svg" xmlns:xlink="http://www.w3.org/1999/xlink" x="0px" y="0px"
	 width="93.6px" height="17.1px" viewBox="0 0 93.6 17.1" enable-background="new 0 0 93.6 17.1" xml:space="preserve">
<g>
	<path d="M8.5,4.9C7.6,3.7,6.6,3.6,6,3.6c-1.6,0-2.1,1-2.1,1.8c0,0.4,0.1,0.7,0.5,1C4.7,6.8,5.2,7,6.2,7.3c1.2,0.4,2.3,0.8,3.1,1.5
		c0.7,0.6,1.3,1.7,1.3,3.2c0,3-2.2,5-5.3,5c-2.8,0-4.5-1.7-5.3-2.9l2-1.9c0.7,1.5,2.1,2,3.2,2c1.4,0,2.4-0.8,2.4-2.1
		c0-0.6-0.2-1-0.6-1.4c-0.6-0.5-1.5-0.8-2.4-1.1C3.8,9.5,2.8,9.1,2,8.4C1.5,8,0.8,7.2,0.8,5.6c0-2.3,1.5-4.5,4.9-4.5
		c1,0,2.8,0.2,4.3,1.8L8.5,4.9z"/>
	<path d="M15.5,0v10.4l3.7-3.6h3.6l-4.7,4.4l5,5.6h-3.7l-3.7-4.3l-0.3,0.3v4h-2.8V0H15.5z"/>
	<path d="M33.9,14c-0.3,0.7-1.4,3.1-4.9,3.1c-1.6,0-2.8-0.5-3.8-1.4c-1.1-1-1.6-2.3-1.6-3.9c0-2,0.8-3.2,1.5-3.9
		c1.2-1.1,2.6-1.4,3.7-1.4c2,0,3.2,0.8,3.9,1.6C33.8,9.4,34,10.9,34,12v0.2h-7.5c0,0.6,0.2,1.2,0.5,1.7c0.3,0.4,0.9,0.9,2,0.9
		c1.1,0,1.9-0.5,2.3-1.3L33.9,14z M31.3,10.5c-0.2-1.4-1.3-2-2.4-2s-2.1,0.7-2.3,2H31.3z"/>
	<path d="M38.8,0v16.8H36V0H38.8z"/>
	<path d="M51.1,14c-0.3,0.7-1.4,3.1-4.9,3.1c-1.6,0-2.8-0.5-3.8-1.4c-1.1-1-1.6-2.3-1.6-3.9c0-2,0.8-3.2,1.5-3.9
		c1.2-1.1,2.6-1.4,3.7-1.4c2,0,3.2,0.8,3.9,1.6c1.1,1.3,1.2,2.8,1.2,3.9v0.2h-7.5c0,0.6,0.2,1.2,0.5,1.7c0.3,0.4,0.9,0.9,2,0.9
		c1.1,0,1.9-0.5,2.3-1.3L51.1,14z M48.6,10.5c-0.2-1.4-1.3-2-2.4-2s-2.1,0.7-2.3,2H48.6z"/>
	<path d="M56.1,9.2v7.6h-2.8V9.2h-1.1V6.8h1.1V3.4h2.8v3.4H58v2.4H56.1z"/>
	<path d="M74.1,13.5h-6.2l-1.4,3.2h-3.2l6.6-15.3h2.3l6.4,15.3h-3.2L74.1,13.5z M73.2,11.1L71,5.6l-2.2,5.5H73.2z"/>
	<path d="M79.9,6.8h2.8v1.5c0.4-0.9,1-1.3,1.2-1.4c0.4-0.3,1-0.4,1.7-0.4c0.5,0,0.9,0.1,1.2,0.2l-0.4,2.6C86.1,9.1,85.7,9,85.2,9
		c-0.5,0-1.3,0.1-1.9,0.8c-0.5,0.7-0.6,1.5-0.6,2.2v4.8h-2.8V6.8z"/>
	<path d="M91.6,9.2v7.6h-2.8V9.2h-1.1V6.8h1.1V3.4h2.8v3.4h1.9v2.4H91.6z"/>
</g>
</svg>
