<svg xmlns="http://www.w3.org/2000/svg" width="119.989" height="143.94" viewBox="0 0 119.989 143.94"><g stroke="#098ECE" stroke-width="4" stroke-linecap="round" stroke-linejoin="round" stroke-miterlimit="10" fill="none"><ellipse cx="59.995" cy="36.086" rx="30.565" ry="34.086"/><path d="M59.995 70.172C30.853 70.172 2 70.172 2 141.94H117.99c0-71.77-28.852-71.768-57.995-71.768zM38.112 71.386s21.883 4.71 21.883 24.808v45.746M81.877 71.386s-21.882 4.71-21.882 24.808v45.746M75.56 109.034h23.446M61.323 57.753S90.56 62.418 90.56 36.086M30 29.516s32.143 4.88 39.722-13.01c0 0 2.768 11.3 19.8 14.092"/><circle cx="61.324" cy="57.753" r="2.172"/><path d="M24.684 112.244s-3.275 18.5-2.16 29.696"/></g></svg>