<?xml version="1.0" encoding="utf-8"?>
<!-- Generator: Adobe Illustrator 16.0.0, SVG Export Plug-In . SVG Version: 6.00 Build 0)  -->
<!DOCTYPE svg PUBLIC "-//W3C//DTD SVG 1.1//EN" "http://www.w3.org/Graphics/SVG/1.1/DTD/svg11.dtd">
<svg version="1.1" id="Слой_1" xmlns="http://www.w3.org/2000/svg" xmlns:xlink="http://www.w3.org/1999/xlink" x="0px" y="0px"
	 width="119.989px" height="143.94px" viewBox="0 0 119.989 143.94" enable-background="new 0 0 119.989 143.94"
	 xml:space="preserve">
<g>
	
		<ellipse fill="none" stroke="#098ECE" stroke-width="4" stroke-linecap="round" stroke-linejoin="round" stroke-miterlimit="10" cx="59.995" cy="36.086" rx="30.565" ry="34.086"/>
	<path fill="none" stroke="#098ECE" stroke-width="4" stroke-linecap="round" stroke-linejoin="round" stroke-miterlimit="10" d="
		M59.995,70.172C30.853,70.172,2,70.171,2,141.94h57.995h57.994C117.989,70.171,89.138,70.172,59.995,70.172z"/>
	<path fill="none" stroke="#098ECE" stroke-width="4" stroke-linecap="round" stroke-linejoin="round" stroke-miterlimit="10" d="
		M38.112,71.386c0,0,21.883,4.711,21.883,24.808v45.746"/>
	<path fill="none" stroke="#098ECE" stroke-width="4" stroke-linecap="round" stroke-linejoin="round" stroke-miterlimit="10" d="
		M81.877,71.386c0,0-21.882,4.711-21.882,24.808v45.746"/>
	
		<line fill="none" stroke="#098ECE" stroke-width="4" stroke-linecap="round" stroke-linejoin="round" stroke-miterlimit="10" x1="75.559" y1="109.034" x2="99.006" y2="109.034"/>
	<path fill="none" stroke="#098ECE" stroke-width="4" stroke-linecap="round" stroke-linejoin="round" stroke-miterlimit="10" d="
		M61.323,57.753c0,0,29.236,4.665,29.236-21.667"/>
	<path fill="none" stroke="#098ECE" stroke-width="4" stroke-linecap="round" stroke-linejoin="round" stroke-miterlimit="10" d="
		M30.001,29.516c0,0,32.142,4.881,39.721-13.011c0,0,2.768,11.3,19.801,14.093"/>
	
		<circle fill="none" stroke="#098ECE" stroke-width="4" stroke-linecap="round" stroke-linejoin="round" stroke-miterlimit="10" cx="61.324" cy="57.753" r="2.172"/>
	<path fill="none" stroke="#098ECE" stroke-width="4" stroke-linecap="round" stroke-linejoin="round" stroke-miterlimit="10" d="
		M24.684,112.244c0,0-3.275,18.5-2.159,29.696"/>
</g>
</svg>
