<svg xmlns="http://www.w3.org/2000/svg" width="85.084" height="137.86" viewBox="0 0 85.084 137.86"><g stroke="#098ECE" stroke-width="4" stroke-miterlimit="10" fill="none"><path d="M83.084 122.925c0 7.146-5.79 12.936-12.936 12.936H14.936C7.794 135.86 2 130.07 2 122.926V14.935C2 7.793 7.794 2 14.936 2H70.15c7.144 0 12.935 5.792 12.935 12.936v107.99z"/><path stroke-linecap="round" stroke-linejoin="round" d="M22.986 70.058l19.557 19.678L72.966 49.14v66.905c0 .846-.687 1.532-1.533 1.532h-57.78c-.848 0-1.533-.687-1.533-1.532V21.817c0-.846.686-1.532 1.532-1.532h57.78c.848 0 1.534.687 1.534 1.532v16.12"/><circle stroke-linecap="round" stroke-linejoin="round" cx="42.542" cy="126.291" r="3.355"/></g></svg>