<svg xmlns="http://www.w3.org/2000/svg" width="49.511" height="45.996" viewBox="0 0 49.511 45.996"><path fill="#00BBF7" d="M47.35 25.993c.7.99 1.233 2.065 1.605 3.244.37 1.175.556 2.39.556 3.646 0 1.803-.362 3.495-1.08 5.083-.722 1.58-1.718 2.975-2.983 4.186-1.267 1.2-2.74 2.142-4.435 2.823-1.693.685-3.477 1.02-5.372 1.02-2.7 0-5.124-.64-7.272-1.914-.595.085-1.196.147-1.803.19-.606.04-1.21.056-1.813.056-3.154 0-6.115-.564-8.885-1.693-2.764-1.134-5.184-2.675-7.27-4.638-2.077-1.955-3.715-4.26-4.897-6.9-1.19-2.64-1.783-5.457-1.783-8.453 0-.58.027-1.134.09-1.645.056-.51.132-1.032.21-1.553C.737 17.388 0 15.178 0 12.807c0-1.763.363-3.43 1.085-4.997.72-1.565 1.707-2.926 2.975-4.082C5.325 2.57 6.808 1.66 8.49.992 10.18.326 11.97 0 13.868 0c1.365 0 2.646.16 3.863.487 1.217.332 2.356.793 3.406 1.396.595-.084 1.204-.145 1.804-.19.608-.038 1.217-.06 1.812-.06 3.165 0 6.135.55 8.912 1.648 2.773 1.09 5.198 2.6 7.285 4.517 2.083 1.923 3.726 4.15 4.918 6.685 1.19 2.537 1.783 5.26 1.783 8.16 0 1.07-.094 2.186-.3 3.35zm-11.71 6.595c.975-1.285 1.454-2.796 1.454-4.53 0-1.365-.27-2.514-.806-3.442-.556-.927-1.343-1.704-2.354-2.324-.932-.6-2.145-1.134-3.627-1.613-1.49-.376-3.07-.742-4.742-1.118l-1.832-.417c-.49-.105-.883-.194-1.176-.274-.328-.08-.63-.168-.918-.273-.272-.096-.56-.21-.85-.333-.558-.234-1.027-.554-1.398-.93-.288-.323-.432-.757-.432-1.297 0-.79.47-1.493 1.4-2.117 1.055-.583 2.344-.863 3.876-.844 1.77 0 3.015.26 3.713.786.847.623 1.514 1.388 1.987 2.292.413.664.83 1.158 1.265 1.483.414.317.988.487 1.71.51.813 0 1.485-.27 2.05-.813.554-.507.818-1.076.805-1.72 0-.744-.21-1.474-.62-2.18-.408-.66-1.093-1.365-2.036-2.11-.478-.324-1-.616-1.565-.888-.568-.27-1.205-.51-1.9-.712-.725-.198-1.487-.35-2.29-.453-.806-.1-1.687-.147-2.662-.147-2.454 0-4.524.3-6.21.902-1.813.626-3.184 1.486-4.113 2.603-.93 1.063-1.394 2.34-1.394 3.832 0 1.57.45 2.846 1.338 3.83.895 1.066 2.105 1.87 3.638 2.417 1.456.584 3.315 1.095 5.6 1.536.853.2 1.6.372 2.26.502.65.127 1.238.274 1.755.43.972.267 1.763.714 2.365 1.345.643.548.966 1.25.966 2.122 0 1.2-.59 2.172-1.75 2.915-1.098.76-2.58 1.134-4.452 1.106-1.495 0-2.58-.174-3.267-.523-.855-.39-1.482-.883-1.897-1.473-.524-.672-.943-1.416-1.28-2.22-.295-.766-.69-1.343-1.21-1.73-.482-.394-1.05-.59-1.712-.59-.847 0-1.546.235-2.1.703-.552.528-.817 1.148-.806 1.844 0 1.213.448 2.428 1.337 3.643.883 1.25 2.016 2.225 3.395 2.93 2.022 1.044 4.562 1.574 7.612 1.595 2.49 0 4.71-.37 6.64-1.11 1.894-.846 3.31-1.89 4.233-3.144z"/></svg>