<?xml version="1.0" encoding="utf-8"?>
<!-- Generator: Adobe Illustrator 16.0.0, SVG Export Plug-In . SVG Version: 6.00 Build 0)  -->
<!DOCTYPE svg PUBLIC "-//W3C//DTD SVG 1.1//EN" "http://www.w3.org/Graphics/SVG/1.1/DTD/svg11.dtd">
<svg version="1.1" id="Layer_1" xmlns="http://www.w3.org/2000/svg" xmlns:xlink="http://www.w3.org/1999/xlink" x="0px" y="0px"
	 width="49.511px" height="45.996px" viewBox="0 0 49.511 45.996" enable-background="new 0 0 49.511 45.996" xml:space="preserve">
<path fill="#00BBF7" d="M47.351,25.993c0.698,0.991,1.232,2.065,1.604,3.244c0.369,1.175,0.556,2.391,0.556,3.646
	c0,1.803-0.363,3.495-1.082,5.083c-0.721,1.581-1.717,2.975-2.982,4.186c-1.267,1.199-2.74,2.142-4.435,2.823
	c-1.693,0.685-3.477,1.021-5.372,1.021c-2.7,0-5.124-0.64-7.272-1.915c-0.595,0.084-1.196,0.146-1.803,0.188
	c-0.606,0.042-1.21,0.057-1.813,0.057c-3.154,0-6.115-0.564-8.885-1.693c-2.764-1.134-5.184-2.675-7.269-4.638
	C6.52,36.04,4.882,33.734,3.7,31.096c-1.189-2.64-1.783-5.458-1.783-8.454c0-0.581,0.027-1.134,0.09-1.645
	c0.056-0.51,0.132-1.032,0.21-1.553C0.736,17.388,0,15.178,0,12.807c0-1.763,0.363-3.43,1.085-4.997
	C1.806,6.245,2.792,4.884,4.06,3.728C5.325,2.57,6.808,1.66,8.491,0.992C10.181,0.326,11.971,0,13.867,0
	c1.365,0,2.646,0.161,3.863,0.487c1.217,0.332,2.356,0.793,3.406,1.396c0.595-0.084,1.204-0.145,1.804-0.191
	c0.608-0.037,1.217-0.059,1.812-0.059c3.165,0,6.135,0.551,8.912,1.648c2.773,1.09,5.198,2.6,7.285,4.516
	c2.084,1.923,3.727,4.149,4.919,6.685c1.189,2.537,1.783,5.259,1.783,8.159C47.651,23.711,47.556,24.828,47.351,25.993z
	 M35.64,32.588c0.975-1.285,1.454-2.796,1.454-4.529c0-1.366-0.27-2.515-0.806-3.443c-0.556-0.927-1.343-1.704-2.354-2.324
	c-0.932-0.601-2.145-1.134-3.627-1.613c-1.489-0.375-3.071-0.741-4.742-1.117l-1.832-0.417c-0.491-0.105-0.883-0.194-1.176-0.274
	c-0.328-0.08-0.63-0.169-0.918-0.274c-0.271-0.096-0.56-0.21-0.848-0.333c-0.559-0.234-1.028-0.554-1.399-0.93
	c-0.288-0.323-0.432-0.757-0.432-1.297c0-0.789,0.469-1.493,1.399-2.117c1.056-0.583,2.345-0.863,3.877-0.844
	c1.77,0,3.015,0.261,3.713,0.786c0.848,0.623,1.515,1.388,1.988,2.292c0.413,0.664,0.831,1.158,1.265,1.483
	c0.414,0.317,0.988,0.487,1.711,0.511c0.812,0,1.484-0.27,2.049-0.814c0.554-0.507,0.818-1.076,0.805-1.719
	c0-0.745-0.211-1.475-0.621-2.18c-0.407-0.661-1.092-1.366-2.035-2.112c-0.479-0.323-1-0.615-1.566-0.887
	c-0.568-0.271-1.205-0.511-1.899-0.712c-0.726-0.198-1.488-0.351-2.291-0.453c-0.806-0.102-1.687-0.148-2.662-0.148
	c-2.454,0-4.524,0.3-6.211,0.902c-1.812,0.626-3.183,1.486-4.112,2.603c-0.929,1.063-1.394,2.34-1.394,3.832
	c0,1.57,0.449,2.846,1.338,3.831c0.895,1.065,2.105,1.87,3.638,2.416c1.456,0.584,3.315,1.095,5.599,1.536
	c0.854,0.201,1.6,0.372,2.261,0.502c0.65,0.127,1.238,0.274,1.755,0.431c0.972,0.266,1.763,0.713,2.365,1.344
	c0.643,0.548,0.966,1.251,0.966,2.122c0,1.201-0.589,2.172-1.749,2.915c-1.099,0.76-2.582,1.134-4.453,1.106
	c-1.495,0-2.58-0.174-3.267-0.523c-0.854-0.389-1.481-0.883-1.896-1.473c-0.524-0.672-0.943-1.416-1.281-2.221
	c-0.294-0.765-0.69-1.342-1.208-1.73c-0.483-0.393-1.05-0.59-1.713-0.59c-0.848,0-1.547,0.236-2.1,0.704
	c-0.553,0.528-0.818,1.148-0.807,1.844c0,1.213,0.448,2.428,1.337,3.643c0.882,1.249,2.015,2.225,3.394,2.929
	c2.022,1.045,4.562,1.575,7.612,1.596c2.489,0,4.71-0.37,6.64-1.109C33.301,34.886,34.717,33.843,35.64,32.588z"/>
</svg>
