<svg xmlns="http://www.w3.org/2000/svg" width="254.527" height="177.795" viewBox="0 0 254.527 177.795"><g opacity=".7" stroke="#000" stroke-linecap="round" stroke-linejoin="round" stroke-miterlimit="10" fill="none"><path stroke-width="3" d="M253.028 172.478c0 2.107-1.71 3.816-3.816 3.816h-28.407c-2.108 0-3.817-1.71-3.817-3.816V5.318c0-2.11 1.71-3.818 3.817-3.818h28.407c2.107 0 3.816 1.71 3.816 3.817v167.16z"/><g stroke-width="2"><path d="M235.007 30.062h18.02M235.007 59.48h18.02"/></g><path d="M238.804 40.48h14.224M238.804 49.062h14.224M238.804 69.9h14.224M238.804 78.48h14.224"/><path stroke-width="2" d="M235.007 88.898h18.02M235.007 118.315h18.02"/><path d="M238.804 99.317h14.224M238.804 107.897h14.224"/><path stroke-width="2" d="M235.007 147.735h18.02"/><path d="M238.804 128.737h14.224M238.804 137.315h14.224"/><circle stroke-width="2" cx="229.113" cy="15.408" r="3.747"/></g><g opacity=".7" stroke="#000" stroke-linecap="round" stroke-linejoin="round" stroke-miterlimit="10"><path stroke-width="3" fill="none" d="M1.5 1.5h201.518v153.015l-20.748 21.78H1.5V1.5"/><path fill="none" d="M13.16 19.154h178.013V160.53H13.16z"/><g fill="none"><path d="M27.333 19.154v141.374M40.94 19.154v141.374M54.545 19.154v141.374M68.15 19.154v141.374M81.757 19.154v141.374M95.363 19.154v141.374M108.97 19.154v141.374M122.575 19.154v141.374M136.18 19.154v141.374M149.787 19.154v141.374M163.393 19.154v141.374M177 19.154v141.374"/></g><path fill="none" d="M191.72 29.064H13.16M191.72 42.67H13.16M191.72 56.276H13.16M191.72 69.882H13.16M191.72 83.488H13.16M191.72 97.095H13.16M191.72 110.7H13.16M191.72 124.308H13.16M191.72 137.913H13.16M191.72 151.52H13.16"/><path fill="#fff" stroke-width="2" d="M182.27 176.15l20.748-21.778H182.27z"/></g></svg>