<svg xmlns="http://www.w3.org/2000/svg" width="175.055" height="184.895" viewBox="0 0 175.055 184.895"><g opacity=".7" stroke="#000" stroke-miterlimit="10" fill="none"><path stroke-width="2" d="M7.487 140.748H124.06v43.146H7.486z"/><path d="M42.547 170.042h46.46v7.844h-46.46zM16.803 170.042h7.845v7.844h-7.845zM29.675 170.042h7.846v7.844h-7.845zM94.035 170.042h7.845v7.844h-7.845zM106.906 170.042h7.845v7.844h-7.844zM16.803 158.275h7.845v7.845h-7.845zM29.675 158.275h7.846v7.845h-7.845zM42.547 158.275h7.846v7.845h-7.846zM55.42 158.275h7.844v7.845H55.42zM68.29 158.275h7.847v7.845H68.29zM81.163 158.275h7.844v7.845h-7.844zM94.035 158.275h7.845v7.845h-7.845zM106.906 158.275h7.845v7.845h-7.844zM16.803 146.508h7.845v7.844h-7.845zM29.675 146.508h7.846v7.844h-7.845zM42.547 146.508h7.846v7.844h-7.846zM55.42 146.508h7.844v7.844H55.42zM68.29 146.508h7.847v7.844H68.29zM81.163 146.508h7.844v7.844h-7.844zM94.035 146.508h7.845v7.844h-7.845zM106.906 146.508h7.845v7.844h-7.844z"/></g><g opacity=".7" stroke="#000" stroke-miterlimit="10" fill="none"><path stroke-width="2" d="M169.894 172.42c0 2.546-2.063 4.608-4.608 4.608H147.29c-2.545 0-4.607-2.063-4.607-4.607v-22.04c0-5.998 4.86-10.86 10.86-10.86h5.49c6 0 10.86 4.862 10.86 10.86v22.04z"/><path d="M142.682 156.192h27.212"/></g><g opacity=".7" stroke="#000" stroke-miterlimit="10" fill="none"><path stroke-width="3" d="M173.554 97.132c0 3.508-2.845 6.352-6.353 6.352H7.853c-3.508 0-6.353-2.844-6.353-6.352V7.852C1.5 4.34 4.343 1.5 7.85 1.5h159.35c3.51 0 6.354 2.843 6.354 6.35l-.002 89.282z"/><path d="M1.5 82.646v14.486c0 3.506 2.846 6.35 6.353 6.35h159.35c3.508 0 6.354-2.843 6.354-6.35V82.646H1.5z"/><circle cx="87.527" cy="93.066" r="4.854"/><path stroke-width="2" d="M73.552 103.483H101.5v17.652H73.552z"/><path stroke-width="3" d="M56.393 121.136h62.27v3.555h-62.27z"/><path d="M11.296 10.816h152.46v71.83H11.297z"/></g></svg>