<svg xmlns="http://www.w3.org/2000/svg" width="233.596" height="205.21" viewBox="0 0 233.596 205.21"><g opacity=".7" stroke="#000" stroke-miterlimit="10" fill="none"><path stroke-width="2" d="M92.808 53.523h129.35"/><path stroke-width="2" d="M141.668 53.523h-25.25V99.98c0 6.5 5.27 11.768 11.77 11.768h1.714c6.498 0 11.767-5.27 11.767-11.767V82.35h1.606c7.94 0 14.376-6.436 14.376-14.377v-14.45h-15.984z"/><path d="M116.418 78.324h-28.46v85.314h91.22V78.324H152.51"/><path d="M193.128 78.324h33.864v85.313h-33.864z"/><path stroke-width="3" d="M227.865 182.112h-.873V61.318h.873c2.335 0 4.23-1.893 4.23-4.23s-1.896-4.228-4.23-4.228h-5.708v-7.354H92.807v7.354H87.1c-2.336 0-4.23 1.893-4.23 4.23s1.894 4.228 4.23 4.228h.87v120.794h-.87c-2.336 0-4.23 1.894-4.23 4.23 0 2.333 1.894 4.228 4.23 4.228h140.765c2.335 0 4.23-1.893 4.23-4.23s-1.894-4.228-4.23-4.228z"/></g><g opacity=".7" stroke="#000" stroke-width="1.9" stroke-miterlimit="10" fill="none"><path d="M15.66 39.685l.247-1.117c1.77-8.01 1.568-16.332-.592-24.245L12.167 2.777C11.873 1.697 10.897.95 9.777.95s-2.096.748-2.39 1.827l-3.15 11.545c-2.16 7.915-2.362 16.236-.592 24.246l.247 1.117L.95 83.813v19.6l4.43 80.177c.087 2.365 2.03 4.236 4.397 4.236s4.31-1.87 4.396-4.236l4.43-80.178v-19.6L15.66 39.686zM3.892 39.685H15.66M2.422 82.635h14.71"/></g><g opacity=".7" stroke="#000" stroke-width="1.9" stroke-miterlimit="10" fill="none"><path d="M60.085.95h-23.19l2.94 33.682-.323 45.633v20.267l3.616 99.346c.106 2.447 2.48 4.38 5.373 4.38 2.895 0 5.27-1.933 5.373-4.38l3.618-99.346V80.265l.406-45.633L60.086.95zM39.838 34.632h17.326M39.838 38.69h17.326M39.184 79.51h18.308M45.445.95v13.386M49.306.95v26.773M52.922.95v26.773"/></g><path opacity=".7" stroke="#000" stroke-miterlimit="10" fill="none" d="M87.97 182.112h22.26M226.993 182.112H216.14"/></svg>