<?xml version="1.0" encoding="utf-8"?>
<!-- Generator: Adobe Illustrator 16.0.0, SVG Export Plug-In . SVG Version: 6.00 Build 0)  -->
<!DOCTYPE svg PUBLIC "-//W3C//DTD SVG 1.1//EN" "http://www.w3.org/Graphics/SVG/1.1/DTD/svg11.dtd">
<svg version="1.1" id="Слой_1" xmlns="http://www.w3.org/2000/svg" xmlns:xlink="http://www.w3.org/1999/xlink" x="0px" y="0px"
	 width="254.527px" height="177.795px" viewBox="0 0 254.527 177.795" enable-background="new 0 0 254.527 177.795"
	 xml:space="preserve">
<g opacity="0.7">
	<path fill="none" stroke="#000000" stroke-width="3" stroke-linecap="round" stroke-linejoin="round" stroke-miterlimit="10" d="
		M253.028,172.478c0,2.107-1.709,3.816-3.816,3.816h-28.407c-2.108,0-3.817-1.709-3.817-3.816V5.317
		c0-2.108,1.709-3.817,3.817-3.817h28.407c2.107,0,3.816,1.709,3.816,3.817V172.478z"/>
	<g>
		<g>
			
				<line fill="none" stroke="#000000" stroke-width="2" stroke-linecap="round" stroke-linejoin="round" stroke-miterlimit="10" x1="235.007" y1="30.062" x2="253.028" y2="30.062"/>
			
				<line fill="none" stroke="#000000" stroke-width="2" stroke-linecap="round" stroke-linejoin="round" stroke-miterlimit="10" x1="235.007" y1="59.48" x2="253.028" y2="59.48"/>
		</g>
		<g>
			
				<line fill="none" stroke="#000000" stroke-linecap="round" stroke-linejoin="round" stroke-miterlimit="10" x1="238.804" y1="40.481" x2="253.028" y2="40.481"/>
			
				<line fill="none" stroke="#000000" stroke-linecap="round" stroke-linejoin="round" stroke-miterlimit="10" x1="238.804" y1="49.062" x2="253.028" y2="49.062"/>
		</g>
		<g>
			
				<line fill="none" stroke="#000000" stroke-linecap="round" stroke-linejoin="round" stroke-miterlimit="10" x1="238.804" y1="69.9" x2="253.028" y2="69.9"/>
			
				<line fill="none" stroke="#000000" stroke-linecap="round" stroke-linejoin="round" stroke-miterlimit="10" x1="238.804" y1="78.479" x2="253.028" y2="78.479"/>
		</g>
		
			<line fill="none" stroke="#000000" stroke-width="2" stroke-linecap="round" stroke-linejoin="round" stroke-miterlimit="10" x1="235.007" y1="88.898" x2="253.028" y2="88.898"/>
		
			<line fill="none" stroke="#000000" stroke-width="2" stroke-linecap="round" stroke-linejoin="round" stroke-miterlimit="10" x1="235.007" y1="118.315" x2="253.028" y2="118.315"/>
		<g>
			
				<line fill="none" stroke="#000000" stroke-linecap="round" stroke-linejoin="round" stroke-miterlimit="10" x1="238.804" y1="99.317" x2="253.028" y2="99.317"/>
			
				<line fill="none" stroke="#000000" stroke-linecap="round" stroke-linejoin="round" stroke-miterlimit="10" x1="238.804" y1="107.897" x2="253.028" y2="107.897"/>
		</g>
		
			<line fill="none" stroke="#000000" stroke-width="2" stroke-linecap="round" stroke-linejoin="round" stroke-miterlimit="10" x1="235.007" y1="147.735" x2="253.028" y2="147.735"/>
		<g>
			
				<line fill="none" stroke="#000000" stroke-linecap="round" stroke-linejoin="round" stroke-miterlimit="10" x1="238.804" y1="128.737" x2="253.028" y2="128.737"/>
			
				<line fill="none" stroke="#000000" stroke-linecap="round" stroke-linejoin="round" stroke-miterlimit="10" x1="238.804" y1="137.315" x2="253.028" y2="137.315"/>
		</g>
	</g>
	
		<circle fill="none" stroke="#000000" stroke-width="2" stroke-linecap="round" stroke-linejoin="round" stroke-miterlimit="10" cx="229.113" cy="15.408" r="3.747"/>
</g>
<g opacity="0.7">
	
		<polyline fill="none" stroke="#000000" stroke-width="3" stroke-linecap="round" stroke-linejoin="round" stroke-miterlimit="10" points="
		1.5,1.5 203.018,1.5 203.018,154.515 182.27,176.295 1.5,176.295 1.5,1.5 	"/>
	
		<rect x="13.16" y="19.154" fill="none" stroke="#000000" stroke-linecap="round" stroke-linejoin="round" stroke-miterlimit="10" width="178.013" height="141.375"/>
	<g>
		
			<line fill="none" stroke="#000000" stroke-linecap="round" stroke-linejoin="round" stroke-miterlimit="10" x1="27.333" y1="19.154" x2="27.333" y2="160.528"/>
		
			<line fill="none" stroke="#000000" stroke-linecap="round" stroke-linejoin="round" stroke-miterlimit="10" x1="40.939" y1="19.154" x2="40.939" y2="160.528"/>
		
			<line fill="none" stroke="#000000" stroke-linecap="round" stroke-linejoin="round" stroke-miterlimit="10" x1="54.545" y1="19.154" x2="54.545" y2="160.528"/>
		
			<line fill="none" stroke="#000000" stroke-linecap="round" stroke-linejoin="round" stroke-miterlimit="10" x1="68.151" y1="19.154" x2="68.151" y2="160.528"/>
		
			<line fill="none" stroke="#000000" stroke-linecap="round" stroke-linejoin="round" stroke-miterlimit="10" x1="81.757" y1="19.154" x2="81.757" y2="160.528"/>
		
			<line fill="none" stroke="#000000" stroke-linecap="round" stroke-linejoin="round" stroke-miterlimit="10" x1="95.363" y1="19.154" x2="95.363" y2="160.528"/>
		
			<line fill="none" stroke="#000000" stroke-linecap="round" stroke-linejoin="round" stroke-miterlimit="10" x1="108.969" y1="19.154" x2="108.969" y2="160.528"/>
		
			<line fill="none" stroke="#000000" stroke-linecap="round" stroke-linejoin="round" stroke-miterlimit="10" x1="122.575" y1="19.154" x2="122.575" y2="160.528"/>
		
			<line fill="none" stroke="#000000" stroke-linecap="round" stroke-linejoin="round" stroke-miterlimit="10" x1="136.181" y1="19.154" x2="136.181" y2="160.528"/>
		
			<line fill="none" stroke="#000000" stroke-linecap="round" stroke-linejoin="round" stroke-miterlimit="10" x1="149.787" y1="19.154" x2="149.787" y2="160.528"/>
		
			<line fill="none" stroke="#000000" stroke-linecap="round" stroke-linejoin="round" stroke-miterlimit="10" x1="163.393" y1="19.154" x2="163.393" y2="160.528"/>
		
			<line fill="none" stroke="#000000" stroke-linecap="round" stroke-linejoin="round" stroke-miterlimit="10" x1="177" y1="19.154" x2="177" y2="160.528"/>
	</g>
	
		<line fill="none" stroke="#000000" stroke-linecap="round" stroke-linejoin="round" stroke-miterlimit="10" x1="191.72" y1="29.064" x2="13.16" y2="29.064"/>
	
		<line fill="none" stroke="#000000" stroke-linecap="round" stroke-linejoin="round" stroke-miterlimit="10" x1="191.72" y1="42.671" x2="13.16" y2="42.671"/>
	
		<line fill="none" stroke="#000000" stroke-linecap="round" stroke-linejoin="round" stroke-miterlimit="10" x1="191.72" y1="56.276" x2="13.16" y2="56.276"/>
	
		<line fill="none" stroke="#000000" stroke-linecap="round" stroke-linejoin="round" stroke-miterlimit="10" x1="191.72" y1="69.882" x2="13.16" y2="69.882"/>
	
		<line fill="none" stroke="#000000" stroke-linecap="round" stroke-linejoin="round" stroke-miterlimit="10" x1="191.72" y1="83.488" x2="13.16" y2="83.488"/>
	
		<line fill="none" stroke="#000000" stroke-linecap="round" stroke-linejoin="round" stroke-miterlimit="10" x1="191.72" y1="97.095" x2="13.16" y2="97.095"/>
	
		<line fill="none" stroke="#000000" stroke-linecap="round" stroke-linejoin="round" stroke-miterlimit="10" x1="191.72" y1="110.701" x2="13.16" y2="110.701"/>
	
		<line fill="none" stroke="#000000" stroke-linecap="round" stroke-linejoin="round" stroke-miterlimit="10" x1="191.72" y1="124.308" x2="13.16" y2="124.308"/>
	
		<line fill="none" stroke="#000000" stroke-linecap="round" stroke-linejoin="round" stroke-miterlimit="10" x1="191.72" y1="137.913" x2="13.16" y2="137.913"/>
	
		<line fill="none" stroke="#000000" stroke-linecap="round" stroke-linejoin="round" stroke-miterlimit="10" x1="191.72" y1="151.519" x2="13.16" y2="151.519"/>
	
		<polygon fill="#FFFFFF" stroke="#000000" stroke-width="2" stroke-linecap="round" stroke-linejoin="round" stroke-miterlimit="10" points="
		182.27,176.151 203.018,154.372 182.27,154.372 	"/>
</g>
</svg>
