<?xml version="1.0" encoding="utf-8"?>
<!-- Generator: Adobe Illustrator 16.0.0, SVG Export Plug-In . SVG Version: 6.00 Build 0)  -->
<!DOCTYPE svg PUBLIC "-//W3C//DTD SVG 1.1//EN" "http://www.w3.org/Graphics/SVG/1.1/DTD/svg11.dtd">
<svg version="1.1" id="Слой_1" xmlns="http://www.w3.org/2000/svg" xmlns:xlink="http://www.w3.org/1999/xlink" x="0px" y="0px"
	 width="175.055px" height="184.895px" viewBox="0 0 175.055 184.895" enable-background="new 0 0 175.055 184.895"
	 xml:space="preserve">
<g opacity="0.7">
	
		<rect x="7.487" y="140.748" fill="none" stroke="#000000" stroke-width="2" stroke-miterlimit="10" width="116.572" height="43.146"/>
	<rect x="42.547" y="170.042" fill="none" stroke="#000000" stroke-miterlimit="10" width="46.46" height="7.844"/>
	<rect x="16.803" y="170.042" fill="none" stroke="#000000" stroke-miterlimit="10" width="7.845" height="7.844"/>
	<rect x="29.675" y="170.042" fill="none" stroke="#000000" stroke-miterlimit="10" width="7.846" height="7.844"/>
	<rect x="94.035" y="170.042" fill="none" stroke="#000000" stroke-miterlimit="10" width="7.845" height="7.844"/>
	<rect x="106.906" y="170.042" fill="none" stroke="#000000" stroke-miterlimit="10" width="7.845" height="7.844"/>
	<g>
		<rect x="16.803" y="158.275" fill="none" stroke="#000000" stroke-miterlimit="10" width="7.845" height="7.845"/>
		<rect x="29.675" y="158.275" fill="none" stroke="#000000" stroke-miterlimit="10" width="7.846" height="7.845"/>
		<rect x="42.547" y="158.275" fill="none" stroke="#000000" stroke-miterlimit="10" width="7.846" height="7.845"/>
		<rect x="55.419" y="158.275" fill="none" stroke="#000000" stroke-miterlimit="10" width="7.845" height="7.845"/>
		<rect x="68.291" y="158.275" fill="none" stroke="#000000" stroke-miterlimit="10" width="7.846" height="7.845"/>
		<rect x="81.163" y="158.275" fill="none" stroke="#000000" stroke-miterlimit="10" width="7.844" height="7.845"/>
		<rect x="94.035" y="158.275" fill="none" stroke="#000000" stroke-miterlimit="10" width="7.845" height="7.845"/>
		<rect x="106.906" y="158.275" fill="none" stroke="#000000" stroke-miterlimit="10" width="7.845" height="7.845"/>
	</g>
	<g>
		<rect x="16.803" y="146.508" fill="none" stroke="#000000" stroke-miterlimit="10" width="7.845" height="7.844"/>
		<rect x="29.675" y="146.508" fill="none" stroke="#000000" stroke-miterlimit="10" width="7.846" height="7.844"/>
		<rect x="42.547" y="146.508" fill="none" stroke="#000000" stroke-miterlimit="10" width="7.846" height="7.844"/>
		<rect x="55.419" y="146.508" fill="none" stroke="#000000" stroke-miterlimit="10" width="7.845" height="7.844"/>
		<rect x="68.291" y="146.508" fill="none" stroke="#000000" stroke-miterlimit="10" width="7.846" height="7.844"/>
		<rect x="81.163" y="146.508" fill="none" stroke="#000000" stroke-miterlimit="10" width="7.844" height="7.844"/>
		<rect x="94.035" y="146.508" fill="none" stroke="#000000" stroke-miterlimit="10" width="7.845" height="7.844"/>
		<rect x="106.906" y="146.508" fill="none" stroke="#000000" stroke-miterlimit="10" width="7.845" height="7.844"/>
	</g>
</g>
<g opacity="0.7">
	<path fill="none" stroke="#000000" stroke-width="2" stroke-miterlimit="10" d="M169.894,172.421c0,2.545-2.063,4.607-4.608,4.607
		H147.29c-2.545,0-4.607-2.063-4.607-4.607V150.38c0-5.998,4.861-10.86,10.859-10.86h5.492c5.998,0,10.86,4.862,10.86,10.86V172.421
		z"/>
	<line fill="none" stroke="#000000" stroke-miterlimit="10" x1="142.682" y1="156.192" x2="169.894" y2="156.192"/>
</g>
<g opacity="0.7">
	<path fill="none" stroke="#000000" stroke-width="3" stroke-miterlimit="10" d="M173.554,97.132c0,3.508-2.845,6.352-6.353,6.352
		H7.852c-3.508,0-6.353-2.844-6.353-6.352V7.851C1.5,4.343,4.344,1.5,7.852,1.5h159.351c3.508,0,6.353,2.843,6.353,6.351
		L173.554,97.132L173.554,97.132z"/>
	<path fill="none" stroke="#000000" stroke-miterlimit="10" d="M1.501,82.646v14.486c0,3.506,2.845,6.351,6.352,6.351h159.351
		c3.507,0,6.353-2.844,6.353-6.351V82.646H1.501z"/>
	<circle fill="none" stroke="#000000" stroke-miterlimit="10" cx="87.527" cy="93.066" r="4.854"/>
	
		<rect x="73.552" y="103.483" fill="none" stroke="#000000" stroke-width="2" stroke-miterlimit="10" width="27.948" height="17.652"/>
	
		<rect x="56.393" y="121.136" fill="none" stroke="#000000" stroke-width="3" stroke-miterlimit="10" width="62.269" height="3.555"/>
	<rect x="11.296" y="10.816" fill="none" stroke="#000000" stroke-miterlimit="10" width="152.461" height="71.83"/>
</g>
</svg>
