<?xml version="1.0" encoding="utf-8"?>
<!-- Generator: Adobe Illustrator 16.0.0, SVG Export Plug-In . SVG Version: 6.00 Build 0)  -->
<!DOCTYPE svg PUBLIC "-//W3C//DTD SVG 1.1//EN" "http://www.w3.org/Graphics/SVG/1.1/DTD/svg11.dtd">
<svg version="1.1" id="Слой_1" xmlns="http://www.w3.org/2000/svg" xmlns:xlink="http://www.w3.org/1999/xlink" x="0px" y="0px"
	 width="113.957px" height="147.538px" viewBox="0 0 113.957 147.538" enable-background="new 0 0 113.957 147.538"
	 xml:space="preserve">
<g>
	<path fill="none" stroke="#098ECE" stroke-width="4" stroke-linecap="round" stroke-linejoin="round" stroke-miterlimit="10" d="
		M94.258,72.123c2.755,5.557,4.302,11.815,4.302,18.438c0,22.964-18.616,41.58-41.58,41.58s-41.581-18.616-41.581-41.58
		S34.016,48.98,56.979,48.98c12.801,0,24.252,5.786,31.88,14.884"/>
	<path fill="none" stroke="#098ECE" stroke-width="4" stroke-linecap="round" stroke-linejoin="round" stroke-miterlimit="10" d="
		M48.884,36.18C22.358,40.094,2,62.947,2,90.561c0,30.364,24.615,54.978,54.979,54.978s54.978-24.613,54.978-54.978
		c0-27.613-20.358-50.466-46.882-54.38V22.932h13.583V2H35.299v20.932h13.585"/>
	
		<polyline fill="none" stroke="#098ECE" stroke-width="4" stroke-linecap="round" stroke-linejoin="round" stroke-miterlimit="10" points="
		56.979,60.962 56.979,90.561 94.249,72.124 	"/>
</g>
</svg>
