<svg xmlns="http://www.w3.org/2000/svg" width="113.957" height="147.538" viewBox="0 0 113.957 147.538"><g stroke="#098ECE" stroke-width="4" stroke-linecap="round" stroke-linejoin="round" stroke-miterlimit="10" fill="none"><path d="M94.258 72.123c2.755 5.557 4.302 11.815 4.302 18.438 0 22.965-18.616 41.58-41.58 41.58S15.4 113.526 15.4 90.56s18.616-41.58 41.58-41.58c12.8 0 24.25 5.786 31.88 14.884M48.884 36.18C22.358 40.094 2 62.947 2 90.56c0 30.365 24.615 54.98 54.98 54.98s54.977-24.614 54.977-54.98c0-27.612-20.358-50.465-46.882-54.38V22.933h13.583V2h-43.36v20.932h13.586M56.98 60.962v29.6l37.27-18.438"/></g></svg>