<svg xmlns="http://www.w3.org/2000/svg" width="159.605" height="279.226" viewBox="0 0 159.605 279.226"><path fill="#FCFCFC" stroke="#494949" stroke-width="2" stroke-miterlimit="10" d="M1 1h157.605v277.226H1z"/><path stroke="#494949" stroke-miterlimit="10" fill="none" d="M46.047 254.27h67.512v23.956H46.046zM1 254.27h45.047v23.956H1zM113.56 254.27h45.045v23.956H113.56z"/><path fill="#494949" d="M1 1h157.605v10.268H1z"/><circle fill="#919191" cx="23.523" cy="266.246" r="4.085"/><circle fill="#919191" cx="136.082" cy="266.246" r="4.085"/><path fill="#919191" d="M74.026 260.47H85.58v11.553H74.025z"/><path stroke="#494949" stroke-width="2" stroke-miterlimit="10" fill="none" d="M13.747 113.784H145.86M13.747 149.784H145.86M13.747 185.784H145.86"/><path fill="#A6E8FF" stroke="#494949" stroke-width="2" stroke-linecap="round" stroke-linejoin="round" stroke-miterlimit="10" d="M84.05 202.49h54.668v34.668H84.05z"/><path stroke="#494949" stroke-miterlimit="10" fill="none" d="M84.05 237.158l54.668-34.667M84.05 202.49l54.668 34.668"/><path fill="#D9DADB" stroke="#494949" stroke-miterlimit="10" d="M141.69 74.04c0 5.8-4.7 10.5-10.5 10.5H28.416c-5.8 0-10.5-4.7-10.5-10.5 0-5.798 4.7-10.5 10.5-10.5H131.19c5.8 0 10.5 4.702 10.5 10.5z"/><path stroke="#494949" stroke-linecap="round" stroke-linejoin="round" stroke-miterlimit="10" fill="none" d="M35.604 40.768h88.4M35.604 50.768h88.4M13.604 127.893H57.36M13.604 137.893h53.9M13.604 212.49H57.36M13.604 222.49h53.9M13.604 232.49h53.9M35.604 68.374v11.333"/><path fill="#A6E8FF" stroke="#494949" stroke-linecap="round" stroke-linejoin="round" stroke-miterlimit="10" d="M91.86 126.173h13.44v13.44H91.86zM125.278 126.173h13.44v13.44h-13.44z"/><text transform="translate(23.523 175.388)" font-family="'MyriadPro-Regular'" font-size="12">**********************</text></svg>