<svg xmlns="http://www.w3.org/2000/svg" width="159.606" height="279.226" viewBox="104.3 46.172 159.606 279.226" enable-background="new 104.3 46.172 159.606 279.226"><path fill="#fff" stroke="#494949" stroke-width="2" stroke-miterlimit="10" d="M105.3 47.172h157.606v277.226H105.3z"/><path stroke="#494949" stroke-miterlimit="10" fill="none" d="M150.348 300.438h67.512v23.958h-67.512zM105.3 300.438h45.048v23.958H105.3zM217.857 300.438h45.047v23.958h-45.047z"/><path fill="#D9DADB" stroke="#494949" stroke-miterlimit="10" d="M236.745 211.06c0 5.8-4.7 10.5-10.5 10.5h-82c-5.8 0-10.5-4.7-10.5-10.5s4.7-10.5 10.5-10.5h82c5.8 0 10.5 4.7 10.5 10.5z"/><path fill="#494949" d="M230.587 208.163l-5.793 5.793-5.793-5.793zM105.3 47.172h157.604V57.44H105.3z"/><path stroke="#494949" stroke-linecap="round" stroke-linejoin="round" stroke-miterlimit="10" fill="none" d="M142.188 238.663h88.4M142.188 248.663h88.4"/><circle fill="#919191" cx="127.823" cy="312.418" r="4.084"/><circle fill="#919191" cx="240.382" cy="312.418" r="4.084"/><path fill="#A6E8FF" stroke="#494949" stroke-width="2" stroke-linecap="round" stroke-linejoin="round" stroke-miterlimit="10" d="M157.91 105.712h54.67v54.667h-54.67z"/><path stroke="#494949" stroke-miterlimit="10" fill="none" d="M157.91 160.38l54.67-54.668M157.91 105.712l54.67 54.667"/><path fill="#919191" d="M178.325 306.64h11.554v11.556h-11.555z"/></svg>